<svg id="Layer_2" data-name="Layer 2" xmlns="http://www.w3.org/2000/svg" viewBox="0 0 1080 1080"><defs><style>.cls-1{fill:#d1d3d4;}.cls-2{fill:#e68439;}.cls-3{fill:#f2cdb2;}.cls-4{fill:#992c2a;}.cls-5{fill:#231f20;}.cls-6{fill:#fff;}</style></defs><title>Artboard 1</title><path class="cls-1" d="M758.4,711.73s-56.74,12.89-117.54,3.58c-.13,3.6.18,9.93,3.72,11.66,3.21,1.56,7.15.93,9,4,4.16,6.9,7.78,112.57,9,136.67,1.88,36.85-3.38,47.63,5,49.69,10.51,2.58,6.35-21.45,6-30.87s-3.69-87.32-2.88-94.62-1.38-23.44-1.63-28.87,3.17-18.39,5.35-17.58,1.07,13.47,1.38,18.33.64,30.18,1.7,33.42,4,3,5-.86a87.77,87.77,0,0,0,1.61-20.56c-.38-6.86-3.09-13.12-2.59-17.61s1.58-22,3.29-22.08c2.72-.15,3.67,25.95,4.36,61.55,1,54.21,1.16,130.19,3.48,167,.35,5.59.79,6.53,3.41,6.82s3.41,0,3.91-4.49-5.77-223-5.92-227.13c-.19-5.13,5.09-5.78,6.09-1.13S703,751.8,703,754.84s-4.55,31.95,3.71,33.17c5,.75,6.85-10.6,5.6-16.42s-3.16-31,1-31.13c3.37-.1,2.33,10.61,2.88,25.31,1,28.14,1.37,47.49,1.65,63.81,0,2.71,1,4.14,3.83,3.88,2.1-.19,2.64-2,2.15-6.63-.57-5.44-2.9-61.11-2.3-84.21.08-3.13,1.48-3.88,2.37-4.07,2.81-.59,4.59,1.11,5,5.14.58,6.27,3.47,88.9,4,100.61.17,3.61,2.23,7.25,5.3,6.84s5.44-3.18,6.11-10.69c1.13-12.75-6.67-80.52-5.23-82.76,3.2-5,2.39-19.35,6.68-19.33,5.3,0,1.69,24.89,3.23,70,.1,2.94,2.1,4,3.37,3.78,2.79-.38,2.41-4.66,2.41-4.66l-1-28.52s3.84,3.48,6.48-.42C764.84,771.82,755.72,726.62,758.4,711.73Z"/><ellipse class="cls-1" cx="680.57" cy="806.89" rx="3.39" ry="2.68" transform="translate(-196.06 1394.91) rotate(-83.71)"/><path class="cls-1" d="M702.33,813.46c.86,2.25,6.28,3.16,7.87-.93,1.84-4.72.66-10.25.3-12.09s-1.27-8.19-4.61-8c-1.13.07-2.31,2-2.25,7.51S701.08,810.2,702.33,813.46Z"/><ellipse class="cls-1" cx="721.42" cy="838.58" rx="3.11" ry="2.49" transform="translate(-191.47 1463.31) rotate(-83.68)"/><path class="cls-1" d="M978.14,488.75a28,28,0,0,0-5.53-8.85l-.35-.4-.36-.41-.36-.42-.37-.43-.35-.4-.36-.41-.37-.42-.37-.43-.35-.4-.37-.43-.34-.39-.39-.44-.35-.4-.37-.43-.35-.4-.36-.41-.38-.43-.35-.4-.37-.43-.34-.39-.39-.44-.35-.4-.37-.43-.35-.4-.36-.41-.37-.42-.37-.43-.35-.4-.37-.43-.34-.39-.39-.44-.35-.4-.37-.43-.35-.4-.37-.42-.37-.43-.35-.4-.37-.43-.34-.39-.39-.44-.35-.4-.37-.43-.35-.4-.36-.41-.36-.42-.37-.43-.35-.4-.36-.41-.36-.42-.37-.43c-4.53-5.22-12.44-11.11-26.17-15.42a19.89,19.89,0,0,0-4.12-6.67l-.36-.4-.36-.41-.36-.41-.37-.42-.36-.41-.36-.41-.36-.42-.37-.42-.36-.4-.37-.42-.35-.39-.38-.43-.36-.41-.37-.42-.36-.41-.36-.41-.37-.42-.36-.41-.37-.42-.35-.4-.38-.43-.36-.4-.37-.42-.36-.4-.36-.41-.36-.42-.37-.42-.36-.4-.37-.42-.35-.39-.38-.43-.36-.4-.37-.42-.35-.4-.36-.41-.37-.42-.36-.41-.37-.42L910,421l-.38-.43-.36-.4-.37-.42-.36-.4-.36-.41-.36-.42-.37-.42-.36-.41-.36-.41-.36-.42-.37-.42c-6-6.92-16.18-10.75-20.4-12.11a11.15,11.15,0,0,0-13.68,6.25c0,.12-4.34,10.22-10.59,25.63l-.35-.39-.36-.41-.37-.42-.36-.41-.36-.41-.36-.42-.37-.42-.59-.65,1.2-2.35A12.85,12.85,0,0,0,860,420a14.17,14.17,0,0,0-3.13-5.1l-.35-.4-.36-.41-.36-.41-.38-.43-.35-.4-.36-.41-.36-.41-.38-.43-.35-.4-.38-.43-.33-.38-.39-.45-.35-.4-.38-.43-.35-.4-.36-.41-.38-.43-.35-.4L850,407l-.33-.38-.39-.45-.35-.4-.38-.43-.35-.4-.36-.41-.36-.41-.38-.43-.35-.4-.38-.43-.33-.38-.39-.45-.35-.4-.38-.43-.35-.4-.36-.42-.38-.43-.35-.4-.38-.43-.33-.38-.39-.45L842,398l-.38-.43-.35-.4-.36-.41-.36-.41-.38-.43-.35-.4-.36-.41-.36-.42-.38-.43c-2.61-3-7.73-7.1-18.14-11.48a11.15,11.15,0,0,0-14,4.68,841,841,0,0,0-41.92,83.45,32.65,32.65,0,0,0-17.47-5.63,25.55,25.55,0,0,0-6.87.93c-7,1.94-13.86,7.23-20.12,13.73,1.68-34.6,3.87-70.37,6.23-74.28,1.87-3.1,5.81-2.47,9-4,2.67-1.3,3.5-5.21,3.7-8.6a16.14,16.14,0,0,0,2.3-3.75c22.54-21,34.29-39.5,47.73-65.67a16.22,16.22,0,0,0-11.54-23.37c-.34-.06-33.63-6.27-57.69-20.58a20.23,20.23,0,0,0-5.22-5.44c-.26-1-.56-2.32-.79-3.27-1.08-4.52-2.41-10.09-4.08-15.61,12.66-7.56,25.95-17.59,30.72-28.39,5.35-12.11,3.2-29.67,0-43.49a16.29,16.29,0,0,0,.13-8.05c-1.08-4.53-7-27.71-16.83-39.44-4-4.75-12.09-10.67-39.79-14.39A310.87,310.87,0,0,0,648.29,119c-10.31,0-17.28.83-22,2.6-10.18,3.87-27.21,20-41.09,34.36a185.18,185.18,0,0,0-31.67-2.61,211.8,211.8,0,0,0-93.33,22c-15.15-8.8-37.66-20.82-50.34-22.53a30.77,30.77,0,0,0-4.05-.26c-13.74,0-36.54,8.65-45.7,12.37-31.92,13-37.48,21-39.3,23.58-9,12.89-8.53,50-4.27,70.88,1.74,8.54,4.15,15.4,7.35,20.84.51,9.35,3.87,16.47,9.62,20.41.67,2.59,1.35,5.68,1.74,8.16.59,3.75,2.85,18.73,4.44,29.84a100.25,100.25,0,0,1-13.52,4.69A16.29,16.29,0,0,0,314.52,362c.53,2.78,5.95,27.92,31.28,53.78a155.84,155.84,0,0,0,38.88,28.55,26.77,26.77,0,0,0,2.19,7.2,11.1,11.1,0,0,0,2,2.84l.36.41.36.41.36.41.37.42.36.41.36.41.36.41.37.42.36.41.37.42c.12.14.23.27.36.41l.37.42.36.41.37.42.36.41.36.41.37.42.36.41.37.42.36.41.37.42.36.41.37.42.36.41.36.41.36.41.37.42.36.41.37.42.36.41.37.42.36.41.37.42.36.41.36.41.37.42.36.41.37.42c.12.14.23.28.36.41l.37.42.36.41.37.42.36.41.36.41c.07.09.13.18.21.27-.52,1.64-1,3.28-1.56,4.89a100,100,0,0,1-10,.8,11.15,11.15,0,0,0-10.46,14,44.53,44.53,0,0,0,9.34,17.07l.36.4.36.41.36.42.13.15q-1.59,5.69-3,11.06l-.21-.24-.37-.43-.35-.4-.37-.43-.34-.39-.39-.44-.35-.4-.37-.43-.35-.4-.36-.41-.37-.43-.35-.4,0-.05a28.69,28.69,0,0,0-1.9-9.15,26.41,26.41,0,0,0-5.14-8l-.36-.41-.36-.41-.36-.41-.37-.42-.36-.41-.36-.41-.36-.41-.37-.42-.36-.41-.37-.42-.35-.4-.38-.43-.36-.41-.37-.42-.36-.41-.36-.41L373,493l-.36-.41-.37-.42-.35-.4-.38-.43-.36-.41-.37-.42-.36-.41-.36-.41-.36-.41-.37-.42-.36-.41-.37-.42-.35-.4-.38-.43-.36-.41-.37-.42-.36-.41-.36-.41-.37-.42-.36-.41-.37-.42-.35-.4-.38-.43-.36-.41-.37-.42-.36-.41-.36-.41-.36-.41-.37-.42-.36-.41-.36-.41-.36-.41-.37-.42c-6.36-7.21-16.33-11.69-24.12-11.69a17.77,17.77,0,0,0-6,1,36.37,36.37,0,0,0-3.85,1.66l-.15-.17,0,0-.34-.38,0,0-.33-.37,0,0-.34-.38,0,0-.34-.38,0,0-.34-.38,0,0-.34-.38,0,0c-.11-.13-.23-.25-.33-.38l0,0-.34-.38,0,0-.34-.38,0,0-.34-.38,0,0-.34-.38,0,0c-.1-.13-.22-.25-.33-.37l0,0-.34-.38,0,0-.34-.38,0,0-.34-.38,0,0-.33-.37,0,0-.34-.38,0,0-.34-.38,0,0-.34-.38,0,0-.34-.38,0,0-.33-.37,0,0-.34-.38,0,0c-.1-.13-.23-.25-.34-.38l0,0-.34-.38,0,0c-.11-.13-.23-.25-.34-.38l0,0-.33-.37,0,0-.34-.38,0,0-.34-.38,0,0-.34-.38,0,0c-.11-.13-.23-.25-.33-.38l0,0-.34-.38,0,0-.34-.38,0,0c-3.38-4.11-8.45-7.61-15.06-10.45,4.73-12.36,5.56-15.57,5.34-18.93a18.09,18.09,0,0,0-5.09-11.21l-.35-.4-.36-.41-.36-.41-.37-.42-.35-.4-.36-.41-.36-.41-.37-.42-.35-.4-.37-.42-.34-.39-.38-.43-.35-.4-.37-.42-.35-.4-.36-.41-.37-.42-.35-.4-.37-.42-.34-.39-.38-.43-.35-.4-.37-.42-.35-.4-.36-.41-.36-.41-.37-.42-.35-.4-.37-.42-.34-.39-.38-.43-.35-.4-.37-.42-.35-.4-.36-.41-.37-.42-.35-.4-.37-.42-.34-.39-.38-.43-.35-.4-.37-.42-.35-.4-.36-.41-.36-.41-.37-.42-.35-.4-.36-.41-.36-.41-.37-.42c-6.06-6.87-16.21-10.27-20.12-11.37a11.14,11.14,0,0,0-13.3,6.42c-.08.18-6.07,14.47-14.21,35l-.3-.34L234,425l-.36-.41-.36-.41-.36-.41-.37-.42c-6.05-6.75-16-10.5-20.16-11.84a11.15,11.15,0,0,0-13.7,6.31c-.18.43-3.93,9.39-9.36,23.25-21.8,2.51-46,6.43-72.12,11.7a11.15,11.15,0,0,0-8.31,14.66q4.15,11.71,9.61,17.73l.36.41.36.41.36.42.37.42.36.41.36.41.36.41.37.42.36.41.37.42.35.4.38.43.36.41.37.42.36.41.36.41.37.42.36.41.37.42.35.4.38.43.36.41.37.42.36.41.36.41.36.42.37.42.36.41.37.42.35.4.38.43.36.41.37.42.36.4.36.41.37.42.36.41.37.42.35.4.38.43.36.41.37.42.36.41.36.41.36.42.37.42.36.41.36.41.36.41.37.42c3.62,4.16,7.66,6.4,12.11,6.66.41,0,.91,0,1.47,0,2.76,0,8-.41,13.75-1-10.58,33.23-15.55,57.09-14.82,71.19a37.71,37.71,0,0,0,9.55,23.24l.35.4.36.41.36.42.37.43.35.4.36.41.36.41.37.43.35.4.37.43.34.39.39.44.35.4.37.43.35.4.36.41.38.43.35.4.37.43.34.39.39.44.35.4.37.43.35.4.36.41.36.42.37.43.35.4.37.43.34.39.39.44.35.4.37.43.35.4.36.42.37.43.35.4.37.43.34.38.39.44.35.4.37.43.35.4.36.41.36.41.37.43.35.4.36.41.36.41.37.43a48.53,48.53,0,0,0,20.76,14.05A11.15,11.15,0,0,0,209.74,623c-.14-.17-2-2.63-1.51-12.16l.08.09.38.43.35.4.38.43.33.37.4.45.35.39.38.43.35.4.36.41.37.41.38.43.35.4.36.41.37.42.38.43a64.34,64.34,0,0,0,17.65,13.67,10.83,10.83,0,0,0,7.3,1c0,.37,0,.74,0,1.12a19.79,19.79,0,0,0,5,13.44l.36.41.36.41.36.41.37.42.36.41.36.41.36.42.37.42.36.4.37.42.35.4.38.43.36.4.37.42.36.41.36.41.37.42.36.41.37.42.35.4.38.43.36.41.37.42.36.4.36.41.36.41.37.42.36.41.37.42.35.39.38.43.36.41.37.42.35.4.36.41.37.42.36.41.37.42.35.39.38.43.36.41.37.42.36.41.36.41.36.41.37.42.36.41.36.41.36.42.37.42c3.43,4.07,8.61,7,15.07,8.52-1.69,5.4-3.41,10.92-5.11,16.49a81.05,81.05,0,0,1-17.63-2.35,11.15,11.15,0,0,0-13.31,14.18,43,43,0,0,0,9.19,15.23l.35.4.36.41.36.41.37.42.35.4.36.41.36.41.37.42.35.4.37.42.34.39.38.44.35.4.37.42.35.4.36.41.37.42.35.4.37.42.34.39.38.44.35.4.37.42.35.4.36.41.36.41.37.42.35.4.14.16c-12.59,44.48-18.82,74.12-19,90.4-.12,11.62,3.92,20.19,9.44,26.31l.35.4.36.41.36.41.37.42.35.4.36.41.36.41.37.42.35.4.37.42.34.39.38.43.35.4.37.42.35.4.36.41.37.42.35.4.37.42.34.39.38.44.35.4.37.42.35.4.36.41.36.41.37.42.35.4.37.42.34.39.38.43.35.4.37.42.35.4.36.41.37.42.35.4.37.42.34.39.38.44.35.4.37.42.35.4.36.41.36.41.37.42.35.4.36.41.36.41.37.42a41.58,41.58,0,0,0,23,13.09,11.15,11.15,0,0,0,10.7-17.88c-.39-.79-3.41-8.3,2.69-40,3-15.48,7.71-34.72,14.11-57.35,2.81,33.92,5.05,97.19,6,115.15,1.89,36.85-3.38,47.63,5,49.69,10.51,2.58,6.35-21.45,6-30.87s-3.69-87.32-2.88-94.62-1.38-23.44-1.63-28.87,3.17-18.4,5.35-17.58,1.07,13.47,1.38,18.33.64,30.18,1.7,33.42,4,3,5-.86A87.78,87.78,0,0,0,347,789.31c-.38-6.86-3.09-13.12-2.59-17.61s1.58-22,3.29-22.07c2.72-.15,3.67,25.95,4.36,61.55,1,54.21,1.15,130.19,3.48,167,.35,5.58.79,6.53,3.41,6.82s3.41,0,3.91-4.49-5.77-223-5.92-227.13c-.19-5.13,5.09-5.78,6.09-1.13s2.81,13.09,2.85,16.13-4.55,31.94,3.71,33.17c5,.75,6.85-10.6,5.6-16.42s-3.16-31,1-31.13c3.37-.1,2.33,10.61,2.88,25.31,1,28.14,1.37,47.49,1.65,63.81,0,2.71,1,4.14,3.83,3.88,2.1-.19,2.64-2,2.15-6.63-.57-5.44-2.9-61.1-2.3-84.21.08-3.13,1.48-3.88,2.37-4.07,2.81-.59,4.59,1.11,5,5.14.58,6.27,3.47,88.9,4,100.61.17,3.61,2.23,7.25,5.3,6.84s5.44-3.18,6.11-10.69c1.13-12.75-6.67-80.52-5.23-82.76s2.11-6.62,2.77-10.59c.87.39,1.71.73,2.47,1a11.16,11.16,0,0,0,3.53.57c.29,0,.57,0,.86,0,.37,11.26-.68,31.56.28,59.78.1,2.94,2.1,4,3.37,3.78,2.79-.38,2.41-4.66,2.41-4.66l-1-28.52s3.84,3.48,6.48-.42c3.34-4.93-.12-25.6-1.22-42.23.22-1.91,1.43-7.94,7.54-25.63q4.61-7.85,8.94-14.88l.29.33.37.42.36.4.37.42.35.39.38.43.36.4.37.42.36.4.36.41.36.42.37.42.36.4.36.41.36.41.37.42c6.08,7.1,14.24,12,20.92,12a20,20,0,0,0,5.9-.93l.31.35.38.44.35.4.37.42.35.4.36.41.36.41.37.42.35.4.37.42.34.39.38.44.35.4.37.42.35.4.36.41.37.42.35.4.37.42.34.39.38.44.35.4.37.42.35.4.36.41.36.42.37.42.35.4.36.41.36.41.37.42c4.54,5.15,9.74,8.82,14.64,10.42a22.37,22.37,0,0,0,2.89.71c-8.25,11.05-15.9,18.22-21.32,21.5-.5-2-.91-4.08-1.21-6.06a11.12,11.12,0,0,0-2.82-5.88l-.36-.41-.36-.41-.36-.41-.37-.42-.36-.41-.36-.41-.36-.42-.37-.42-.36-.41-.37-.42-.35-.4-.37-.43-.36-.41-.37-.42-.36-.41-.36-.41-.37-.42-.36-.41-.37-.42-.35-.4-.37-.43-.36-.41-.37-.42-.36-.41-.36-.41-.36-.42-.37-.42-.36-.41-.37-.42-.35-.4-.37-.43-.36-.41-.37-.42-.36-.4-.36-.42-.37-.42-.36-.41-.37-.42-.35-.4-.37-.43-.36-.41-.37-.42-.36-.41-.36-.41-.36-.42-.37-.42-.36-.41-.36-.41-.36-.41-.37-.42a11.14,11.14,0,0,0-18.75,2.57c-5.9,13.18-3.42,33.19,5.9,47.58a47.51,47.51,0,0,0,5.08,6.54l.36.41.36.41.36.41.37.42.36.41.36.41.36.41.37.42.36.41.37.42c.24.27.48.56.73.83l.36.4.37.42.36.41.36.41.37.42.36.41.37.42c.24.27.48.56.73.83l.36.41.37.42.36.4.36.41.36.41.37.42.36.4.37.42c.24.27.48.56.73.83l.36.41.37.42.35.4.36.41.37.42.36.41.37.42c.24.27.48.56.73.83l.36.41.37.42.36.41.36.41.36.41.37.42.36.41.36.41.36.41.37.42a40.61,40.61,0,0,0,30.72,13.55h.23c19.86-.1,39.5-10.79,56.82-30.91,15.52-18,28-42.1,36.62-66.26.24.28.48.56.73.83l.35.4.37.42.35.4.36.41.37.42.35.4.36.41c.25.28.49.56.74.84l.35.4.37.42.35.4.36.41.36.41.37.42.35.4.36.41.36.41.37.42c6.32,7,14,12.16,21.3,13.28a29.58,29.58,0,0,0,4.5.34c10.69,0,23-5.9,34.59-16.27l.07.08.35.4.36.41.36.41.37.43.35.4.36.41.36.42.37.43c4.34,5.11,10.18,9.25,17.93,10.08a19.68,19.68,0,0,0,2.09.11,23,23,0,0,0,10.3-2.32,38.45,38.45,0,0,0,5.62,8.52l.35.4.36.41.37.42.37.42.35.4.36.41.37.42.37.42.35.4.37.42.34.39.38.44.35.4.37.42.35.4.36.41.38.43.35.4.37.42.34.39.38.44.35.4.37.42.35.4.36.41.37.42.37.42.35.4.37.42.34.39.38.44.35.4.37.42.35.4.36.42.37.42.35.4.37.42.34.39.38.44.35.4.37.42.35.4.36.41.37.42.37.42.35.4.36.41.37.41.37.42c6.38,7.53,14.49,11.13,19.79,12.1a11.15,11.15,0,0,0,13.08-12.33c-2-16.11,6.74-66.87,30.49-144.75,3.65.08,6.9.22,9.8.38l.21.23.35.4.37.43.35.4.36.41.38.43.35.4.37.43.34.39.39.44.35.4.37.43.35.4.36.41.36.41.37.43.35.4.37.43.34.39.39.44.35.4.37.43.35.4.36.42.37.43.35.4.38.43.34.39.39.44.35.4.37.43.35.4.36.41.36.42.37.43.35.4.36.41.37.41.37.43A24.87,24.87,0,0,0,822,660.27a25.91,25.91,0,0,0,8.21-1.37A20.49,20.49,0,0,0,839,653a34,34,0,0,0,17.84,6.8l.67,0a11.15,11.15,0,0,0,8.7-18.13c-.41-.74-5-10.73,11.37-60,9.55-28.8,22.92-61.18,33-84.94,4.6-.28,8.75-.48,12.52-.6l.07.07.36.41.37.42.35.4.37.43.36.41.37.42.36.41.36.41c.12.14.24.28.36.41l.37.42.36.41.37.42.35.4.38.43.36.41.37.42.36.41.36.41.37.42.36.41.37.42c.12.14.23.27.35.4l.38.43.36.41.37.42.36.41.36.41.36.41.37.42.36.41.36.41.36.41.37.42a11.14,11.14,0,0,0,3.78,2.89,44.74,44.74,0,0,0,17.13,3.85h0c7,0,13.08-2.28,17.59-6.58C979.29,504.64,981,496.48,978.14,488.75Zm-455.28,17.4-.09.15-.24-.27-.37-.42-.35-.4-.36-.42-.37-.42-.36-.4-.37-.42-.35-.39-.38-.43-.36-.4-.37-.42-.36-.4-.36-.41-.36-.42-.37-.42-.36-.4-.36-.41-.36-.41c7.75-9.41,11.86-19.12,11.89-28.52,10.56-.45,20.32-1.21,28.8-2.07C543,475.73,529.91,494.65,522.86,506.15Zm102.68-30.48c-.83,1.94-2.12,5-3.72,8.74l0-.05-.36-.41-.36-.41-.36-.41-.37-.42-.36-.41-.36-.41-.36-.41-.37-.42c-3.5-4-8.58-6.42-11.35-7.71a97.22,97.22,0,0,0-9.82-3.9,11.13,11.13,0,0,0-10.26,1.76,36.15,36.15,0,0,0-11.19-5.09c7.27-1,11.79-1.84,12.52-2a348.46,348.46,0,0,0,37.49-8.74Zm13.23-9h0a11.13,11.13,0,0,0-7.32,1.21c.06-5,.08-9.72.06-14.09q4.35-1.35,8.62-2.82C639.73,455.78,639.26,461.15,638.78,466.7ZM657.51,475a32.74,32.74,0,0,0-8.45-5.21c.29-7.64.58-15.31.85-22.31q4.3-1.63,8.51-3.39C658.21,454.37,657.86,465.37,657.51,475Zm26.89-4.88a20.4,20.4,0,0,0-4.59-.77h-.52a14.46,14.46,0,0,0-3.24.39c-.43-1.83-1.14-2.59-1.83-2.63-2.17-.13-3.31,2.5-3.94,4.87a49.49,49.49,0,0,0-7.52,5c.24-10.12.57-21.63,1.07-35.2q2.42-1.06,4.8-2.16a66.49,66.49,0,0,1-.89,6.6c-1.25,5.82.57,17.17,5.6,16.42,6.3-.93,5.13-17.94,4.24-27.32q4-2,7.93-4.14C685.22,441,684.83,454.57,684.4,470.09ZM711,437.63c-.25,5.42-2.44,21.57-1.63,28.87.25,2.3.1,11.61-.24,23.59l-.21-.24-.35-.4-.37-.42-.34-.39-.38-.44-.35-.4-.37-.42-.35-.4-.36-.41-.37-.42-.35-.4-.37-.42-.34-.39-.38-.44-.35-.4-.37-.42-.35-.4-.36-.41-.36-.42-.21-.24a4.26,4.26,0,0,0,0-1c-.21-1.86-1.57-3.24-3-3.07a2.16,2.16,0,0,0-.55.14,34.36,34.36,0,0,0-7.73-5.58v-.46c.35-18.19.77-33.89,1.46-44.88q2.73-1.58,5.41-3.21c.34,3.62.6,7,.78,8.62.5,4.49-2.22,10.75-2.59,17.61a87.81,87.81,0,0,0,1.61,20.56c1,3.87,4,4.11,5,.86s1.38-28.56,1.7-33.42-.8-17.52,1.38-18.33S711.25,432.21,711,437.63Z"/><ellipse class="cls-1" cx="343.36" cy="820.45" rx="3.39" ry="2.68" transform="translate(-509.88 1071.45) rotate(-83.68)"/><path class="cls-1" d="M368.68,806c-1.13.07-2.31,2-2.25,7.51s-2.55,10.23-1.3,13.49c.86,2.25,6.28,3.16,7.87-.93,1.84-4.72.66-10.25.3-12.09S372,805.82,368.68,806Z"/><ellipse class="cls-1" cx="384.21" cy="852.14" rx="3.11" ry="2.49" transform="translate(-505.02 1140.3) rotate(-83.69)"/><path d="M750.52,702.47s-57.65,9.31-118.45,0c-.13,3.6.18,9.93,3.72,11.66,3.21,1.56,7.15.93,9,4,4.16,6.9,7.78,112.57,9,136.67,1.89,36.85-3.38,47.63,5,49.69,10.51,2.58,6.35-21.45,6-30.87s-3.68-87.32-2.88-94.62-1.38-23.44-1.63-28.87,3.17-18.4,5.35-17.58S666.72,746,667,750.91s.64,30.18,1.7,33.42,4,3,5-.86a87.81,87.81,0,0,0,1.61-20.56c-.38-6.86-3.09-13.12-2.6-17.61s1.58-22,3.3-22.07c2.72-.15,3.67,25.95,4.36,61.55,1,54.21,1.15,130.19,3.48,167,.35,5.58.79,6.53,3.41,6.82s3.41,0,3.91-4.49-5.77-223-5.92-227.13c-.19-5.13,5.09-5.78,6.09-1.13S694.21,739,694.25,742s-4.55,31.94,3.71,33.17c5,.75,6.85-10.6,5.6-16.42s-3.16-31,1-31.13c3.37-.1,2.33,10.61,2.88,25.31,1,28.14,1.37,47.49,1.65,63.81,0,2.71,1,4.14,3.83,3.88,2.1-.19,2.64-2,2.15-6.63-.57-5.44-2.9-61.1-2.3-84.21.08-3.13,1.48-3.88,2.37-4.07,2.81-.59,4.59,1.11,5,5.14.58,6.27,3.47,88.9,4,100.61.17,3.61,2.23,7.25,5.3,6.84s5.44-3.18,6.11-10.69c1.13-12.75-6.67-80.52-5.23-82.76,3.2-5,2.39-19.35,6.68-19.33,5.3,0,1.7,24.89,3.23,70,.1,2.94,2.1,4,3.37,3.78,2.79-.38,2.41-4.66,2.41-4.66l-1-28.52s3.84,3.48,6.49-.42C756.06,759,747.84,717.36,750.52,702.47Z"/><ellipse cx="671.78" cy="794.04" rx="3.39" ry="2.68" transform="translate(-191.11 1374.74) rotate(-83.71)"/><path d="M693.54,800.62c.86,2.25,6.28,3.16,7.87-.93,1.84-4.72.66-10.25.3-12.09s-1.27-8.19-4.61-8c-1.13.07-2.31,2-2.25,7.51S692.29,797.36,693.54,800.62Z"/><ellipse cx="712.63" cy="825.74" rx="3.11" ry="2.49" transform="translate(-186.53 1443.15) rotate(-83.68)"/><path d="M970.4,478.24a28,28,0,0,0-5.53-8.85l-.35-.4-.36-.41-.36-.42-.37-.43-.35-.4-.36-.41-.36-.42-.37-.43-.35-.4-.37-.43-.34-.39-.39-.44-.35-.4-.37-.43-.35-.4-.36-.41-.38-.43-.35-.4-.37-.43-.34-.39-.39-.44-.35-.4-.37-.43-.35-.4-.36-.41-.36-.42-.38-.43-.35-.4-.37-.43L954,457l-.39-.44-.35-.4-.37-.43-.35-.4-.36-.41-.37-.43-.35-.4-.37-.43-.34-.39-.39-.44-.35-.4-.37-.43-.35-.4-.36-.41-.36-.42-.37-.43-.35-.4-.36-.41-.36-.42-.37-.43c-4.53-5.22-12.44-11.11-26.17-15.42a19.89,19.89,0,0,0-4.12-6.66l-.36-.41-.36-.41-.36-.42L915,425l-.36-.4-.36-.41-.37-.42-.37-.42-.36-.41-.37-.42-.35-.39-.38-.43-.36-.4-.37-.42-.36-.41-.36-.41-.37-.42-.36-.4-.37-.42-.35-.4-.38-.43-.36-.4-.37-.42-.36-.4-.36-.41-.36-.41-.37-.42-.36-.41-.37-.42-.35-.4-.38-.43-.36-.4-.37-.42-.35-.4-.37-.42-.37-.42-.36-.4-.37-.42-.35-.4-.38-.43-.36-.41-.37-.42-.36-.4-.36-.41-.36-.41-.37-.42-.36-.4-.36-.41-.36-.42-.37-.42c-6-6.92-16.18-10.75-20.4-12.11a11.15,11.15,0,0,0-13.68,6.25c-.05.12-4.34,10.22-10.59,25.63l-.35-.4-.36-.41-.37-.42-.36-.4-.36-.41-.36-.42-.37-.42-.59-.65c.4-.78.8-1.58,1.2-2.35a12.85,12.85,0,0,0,.63-10.39,14.18,14.18,0,0,0-3.13-5.1l-.35-.4-.36-.41-.36-.42-.38-.43-.35-.4-.36-.41-.36-.41-.38-.43-.35-.4-.38-.43-.33-.38-.39-.45-.35-.4-.38-.43-.35-.4-.36-.41-.38-.43-.35-.4-.38-.43-.33-.38-.39-.45-.35-.4-.38-.43-.35-.4-.36-.41-.36-.42-.38-.43-.35-.4-.38-.43-.33-.38-.39-.45-.35-.4-.38-.43-.35-.4-.36-.42-.38-.43-.35-.4-.38-.43-.33-.38-.39-.45-.35-.4-.38-.43-.35-.4-.36-.41-.36-.42-.38-.43-.35-.4-.36-.41-.36-.41-.38-.43c-2.61-3-7.73-7.1-18.14-11.48a11.15,11.15,0,0,0-14,4.68A840.76,840.76,0,0,0,757,460.36a32.64,32.64,0,0,0-17.47-5.63,25.58,25.58,0,0,0-6.87.93c-7,1.94-13.86,7.23-20.12,13.73,1.68-34.6,3.87-70.37,6.23-74.28,1.87-3.1,5.81-2.47,9-4,2.67-1.3,3.5-5.21,3.7-8.6a16.07,16.07,0,0,0,2.3-3.75c22.54-21,34.29-39.5,47.73-65.67a16.22,16.22,0,0,0-11.54-23.37c-.34-.06-33.63-6.27-57.69-20.58a20.24,20.24,0,0,0-5.22-5.44c-.26-1-.56-2.32-.79-3.27-1.08-4.52-2.41-10.09-4.08-15.61,12.66-7.56,25.95-17.59,30.72-28.39,5.35-12.11,3.2-29.67,0-43.49a16.28,16.28,0,0,0,.13-8.05c-1.09-4.53-7-27.71-16.83-39.44-4-4.75-12.09-10.67-39.79-14.39a310.81,310.81,0,0,0-35.87-2.59c-10.31,0-17.28.83-22,2.6-10.18,3.87-27.21,20-41.09,34.36a185.18,185.18,0,0,0-31.67-2.61,211.8,211.8,0,0,0-93.33,22c-15.15-8.8-37.66-20.82-50.34-22.53a30.69,30.69,0,0,0-4.05-.26c-13.74,0-36.54,8.65-45.7,12.37-31.92,13-37.48,21-39.3,23.58-9,12.89-8.53,50-4.27,70.88,1.74,8.54,4.15,15.4,7.34,20.83.51,9.35,3.87,16.47,9.62,20.41.67,2.59,1.35,5.68,1.74,8.16.59,3.75,2.85,18.73,4.44,29.84a100.21,100.21,0,0,1-13.52,4.69,16.29,16.29,0,0,0-11.68,18.72c.53,2.78,5.95,27.92,31.27,53.78a155.85,155.85,0,0,0,38.88,28.55,26.77,26.77,0,0,0,2.19,7.2,11.11,11.11,0,0,0,2,2.84l.36.41.36.41.36.41.37.42.36.41.36.41.36.41.37.42.36.41.37.42c.12.14.23.28.36.41l.37.42.36.41.37.42.36.41.36.41.37.42.36.41.37.42.36.41.37.42.36.41.37.42.36.41.36.41.36.41.37.42.36.41.37.42.36.41.37.42.36.41.37.42.36.41.36.41.37.42.36.41.37.42.36.41.37.42.36.41.37.42.36.41.36.41c.07.09.13.18.21.27-.52,1.64-1,3.28-1.56,4.89a100.06,100.06,0,0,1-10,.8,11.15,11.15,0,0,0-10.46,14,44.52,44.52,0,0,0,9.35,17.07l.36.4.36.41.36.41.13.15q-1.59,5.69-3,11.06l-.21-.24-.37-.43-.35-.4-.37-.43-.34-.39-.39-.44-.35-.4-.37-.43-.35-.4-.36-.41-.37-.43-.35-.4,0-.05a28.69,28.69,0,0,0-1.9-9.15,26.41,26.41,0,0,0-5.14-8l-.36-.41-.36-.41-.36-.41-.37-.42-.36-.41-.36-.41-.36-.41-.37-.42-.36-.41-.37-.42-.35-.4-.38-.43-.36-.41-.37-.42-.36-.41-.36-.41-.37-.42-.36-.41-.37-.42-.35-.4-.37-.43-.36-.41-.37-.42-.36-.41-.36-.41-.36-.41-.37-.42-.36-.41-.37-.42-.35-.4-.38-.43-.36-.41-.37-.42-.36-.41-.36-.41-.37-.42-.36-.41-.37-.42-.35-.4-.38-.43-.36-.41-.37-.42-.36-.41-.36-.41-.36-.41-.37-.42-.36-.41-.36-.41-.36-.41-.37-.42c-6.36-7.21-16.33-11.69-24.12-11.69a17.77,17.77,0,0,0-6,1,36.33,36.33,0,0,0-3.85,1.66l-.15-.17,0,0-.34-.38,0,0-.33-.37,0,0-.34-.38,0,0-.34-.38,0,0-.34-.38,0,0-.34-.38,0,0c-.1-.13-.23-.25-.33-.37l0,0-.34-.38,0,0-.34-.38,0,0c-.11-.13-.23-.25-.34-.38l0,0-.34-.38,0,0-.33-.37,0,0-.34-.38,0,0-.34-.38,0,0-.34-.38,0,0c-.11-.13-.23-.25-.33-.38l0,0-.34-.38,0,0-.34-.38,0,0-.34-.38,0,0-.34-.38,0,0-.33-.37,0,0-.34-.38,0,0-.34-.38,0,0-.34-.38,0,0c-.11-.13-.23-.25-.34-.38l0,0c-.1-.13-.23-.25-.33-.37l0,0-.34-.38,0,0-.34-.38,0,0-.34-.38,0,0c-.11-.13-.23-.25-.34-.38l0,0-.34-.38,0,0-.34-.38,0,0c-3.38-4.11-8.45-7.61-15.06-10.45,4.73-12.36,5.56-15.57,5.34-18.93a18.1,18.1,0,0,0-5.09-11.21l-.35-.4L292,405l-.36-.41-.37-.42-.35-.4-.36-.41-.36-.41-.37-.42-.35-.4-.37-.42-.34-.39-.38-.43-.35-.4-.37-.42-.35-.4-.36-.41-.37-.42-.35-.4-.37-.42-.34-.39-.38-.43-.35-.4-.37-.42-.35-.4-.36-.41-.36-.41-.37-.42-.35-.4-.37-.42-.34-.39-.38-.43-.35-.4-.37-.42-.35-.4-.36-.41-.37-.42-.35-.4-.37-.42-.34-.39-.38-.43-.35-.4-.37-.42-.35-.4-.36-.41-.36-.41-.37-.42-.35-.4-.36-.41-.36-.41-.37-.42c-6.06-6.87-16.2-10.27-20.12-11.37a11.14,11.14,0,0,0-13.3,6.42c-.08.18-6.07,14.47-14.21,35l-.3-.34-.37-.42-.36-.41-.36-.41-.36-.41-.37-.42c-6.05-6.74-16-10.5-20.16-11.83a11.14,11.14,0,0,0-13.7,6.31c-.18.43-3.93,9.39-9.36,23.25-21.8,2.5-46,6.43-72.12,11.7a11.15,11.15,0,0,0-8.31,14.66q4.15,11.71,9.61,17.73l.36.41.36.41.36.42.37.42.36.41.36.41.36.41.37.42.36.41.37.42.35.4.38.43.36.41.37.42.36.41.36.41.37.42.36.41.37.42.35.4.38.43.36.41.37.42.36.41.36.41.36.41.37.42.36.41.37.42.35.4.38.43.36.41.37.42.36.4.36.42.37.42.36.41.37.42.35.4.38.43.36.41.37.42.36.41.36.41.36.41.37.42.36.41.36.41.36.42.37.42c3.62,4.16,7.66,6.4,12.11,6.66.41,0,.91,0,1.47,0,2.76,0,8-.41,13.75-1-10.58,33.23-15.55,57.09-14.82,71.19A37.71,37.71,0,0,0,151,595.42l.35.4.36.41.36.41.37.43.35.4.36.41.36.41.37.43.35.4.37.43.34.39.39.44.35.4.37.43.35.4.36.41.38.43.35.4.37.43.34.39.39.44.35.4.37.43.35.4.36.41.36.41.37.43.35.4.37.43.34.39.39.44.35.4.37.43.35.4.36.42.37.43.35.4.37.43.34.38.39.44.35.4.37.43.35.4.36.41.36.42.37.43.35.4.36.41.36.41.37.43a48.52,48.52,0,0,0,20.76,14.05A11.15,11.15,0,0,0,202,612.5c-.14-.17-2-2.63-1.51-12.17l.08.09.38.43.35.4.38.43.33.37.4.45.35.39.38.43.35.4.36.41.37.42.38.43.35.39.36.41.37.42.38.43a64.35,64.35,0,0,0,17.65,13.67,10.85,10.85,0,0,0,7.3,1c0,.37,0,.74,0,1.12a19.79,19.79,0,0,0,5,13.44l.36.41.36.41.36.41.37.42.36.41.36.41.36.42.37.42.36.4.37.42.35.4.38.43.36.41.37.42.36.41.36.41.37.42.36.41.37.42.35.39.38.43.36.41.37.42.36.4.36.41.36.42.37.42.36.41.37.42.35.39.38.43.36.41.37.42.35.4.36.41.37.42.36.41.37.42.35.4.38.43.36.4.37.42.36.41.36.41.36.41.37.42.36.4.36.41.36.41.37.42c3.43,4.07,8.61,7,15.07,8.52-1.69,5.4-3.41,10.92-5.11,16.49a80.93,80.93,0,0,1-17.63-2.35,11.15,11.15,0,0,0-13.31,14.18,43,43,0,0,0,9.19,15.23l.35.4.36.41.36.41.37.42.35.4.36.41.36.41.37.42.35.4.37.42.34.39.38.44.35.4.37.42.35.4.36.41.37.42.35.4.37.42.34.39.38.44.35.4.37.42.35.4.36.41.36.41.37.42.35.4.14.16c-12.59,44.48-18.82,74.12-19,90.4-.12,11.62,3.92,20.19,9.44,26.31l.35.4.36.41.36.41.37.42.35.4.36.41.36.41.37.42.35.4.37.42.34.39.38.43.35.4.37.42.35.4.36.41.37.42.35.4.37.42.34.39.38.44.35.4.37.42.35.4.36.41.36.41.37.42.35.4.37.42.34.39.38.43.35.4.37.42.35.4.36.41.37.42.35.4.37.42.34.39.38.44.35.4.37.42.35.4.36.41.36.41.37.42.35.4.36.41.36.41.37.42a41.57,41.57,0,0,0,23,13.09A11.15,11.15,0,0,0,294.91,853c-.39-.79-3.41-8.3,2.69-40,3-15.48,7.71-34.72,14.11-57.35,2.81,33.92,5.05,97.19,6,115.15,1.89,36.85-3.38,47.63,5,49.69,10.51,2.58,6.35-21.45,6-30.87s-3.68-87.32-2.88-94.62-1.38-23.44-1.63-28.87,3.17-18.4,5.35-17.59,1.07,13.47,1.38,18.33.64,30.18,1.7,33.42,4,3,5-.86a87.78,87.78,0,0,0,1.61-20.56c-.38-6.86-3.09-13.12-2.6-17.61s1.58-22,3.3-22.08c2.72-.15,3.67,25.95,4.36,61.55,1,54.21,1.15,130.19,3.48,167,.35,5.58.79,6.53,3.41,6.82s3.41,0,3.91-4.49-5.77-223-5.92-227.13c-.19-5.13,5.09-5.78,6.09-1.13s2.81,13.09,2.85,16.13-4.55,31.94,3.71,33.17c5,.75,6.85-10.6,5.6-16.42s-3.16-31,1-31.13c3.37-.1,2.33,10.61,2.88,25.31,1,28.14,1.37,47.49,1.65,63.81,0,2.71,1,4.14,3.83,3.88,2.1-.19,2.64-2,2.15-6.63-.57-5.44-2.9-61.1-2.3-84.21.08-3.13,1.48-3.88,2.37-4.07,2.81-.59,4.59,1.11,5,5.14.58,6.27,3.47,88.9,4,100.61.17,3.61,2.23,7.25,5.3,6.84s5.44-3.18,6.1-10.69c1.13-12.75-6.67-80.52-5.23-82.76s2.11-6.62,2.77-10.59c.87.39,1.71.73,2.47,1a11.13,11.13,0,0,0,3.52.57c.29,0,.57,0,.86,0,.37,11.26-.68,31.56.28,59.78.1,2.94,2.1,4,3.37,3.78,2.79-.38,2.41-4.66,2.41-4.66l-1-28.52s3.84,3.48,6.48-.42c3.34-4.93-.12-25.6-1.22-42.23.22-1.91,1.43-7.94,7.54-25.63q4.61-7.85,8.94-14.88l.29.33.37.42.36.4.37.42.35.39.38.43.36.4.37.42.36.4.36.41.36.41.37.42.36.4.36.41.36.42.37.42c6.08,7.1,14.24,12,20.92,12a20,20,0,0,0,5.9-.93l.31.35.38.44.35.4.37.42.35.4.36.41.36.41.37.42.35.4.37.42.34.39.38.44.35.4.37.42.35.4.36.41.37.42.35.4.37.42.34.39.38.44.35.4.37.42.35.4.36.41.36.41.37.42.35.4.36.41.36.42.37.42c4.54,5.15,9.74,8.82,14.64,10.42a22.22,22.22,0,0,0,2.89.71c-8.26,11.05-15.9,18.22-21.32,21.5-.5-2-.91-4.08-1.21-6.06a11.11,11.11,0,0,0-2.82-5.88l-.36-.41-.36-.41-.36-.42-.37-.42-.36-.41-.36-.41L464,747l-.37-.42-.36-.41-.37-.42-.35-.4-.37-.43-.36-.41-.37-.42-.36-.41-.36-.41-.37-.42-.36-.41-.37-.42-.35-.4-.37-.43-.36-.41-.37-.42-.36-.41-.36-.41-.36-.42-.37-.42-.36-.41-.37-.42-.35-.4-.37-.43-.36-.41-.37-.42-.36-.41-.36-.41-.37-.42-.36-.41-.37-.42-.35-.4-.37-.43-.36-.41-.37-.42-.36-.41-.36-.41-.36-.42-.37-.42-.36-.41-.36-.41-.36-.41-.37-.42a11.14,11.14,0,0,0-18.75,2.57c-5.9,13.18-3.42,33.19,5.9,47.58a47.38,47.38,0,0,0,5.08,6.54l.36.41.36.41.36.41.37.42.36.41.36.41.36.41.37.42.36.41.37.42c.24.27.48.56.73.83l.36.4.37.42.36.41.36.41.37.42.36.41.37.42c.24.27.48.56.73.83l.36.41.37.42.36.4.36.41.36.41.37.42.36.41.37.42c.24.27.48.56.73.83l.36.41.37.42.35.4.36.41.37.42.36.41.37.42c.24.27.48.56.73.83l.36.41.37.42.36.41.36.41.36.41.37.42.36.41.36.41.36.41.37.42a40.62,40.62,0,0,0,30.72,13.55h.23c19.86-.1,39.5-10.79,56.82-30.91,15.51-18,28-42.1,36.61-66.26.24.28.48.56.73.83l.35.4.37.42.35.4.36.41.37.42.35.4.36.41c.25.28.49.56.74.84l.35.4.37.43.35.4.36.41.36.42.37.42.35.4.36.41.36.41.37.42c6.33,7,14,12.16,21.3,13.28a29.58,29.58,0,0,0,4.5.34c10.69,0,23-5.9,34.59-16.27l.07.08.35.4.36.41.36.42.37.43.35.4.36.41.37.41.37.43c4.34,5.11,10.18,9.25,17.93,10.08a19.68,19.68,0,0,0,2.09.11,23,23,0,0,0,10.3-2.32,38.48,38.48,0,0,0,5.62,8.52l.35.4.36.41.37.42.37.42.35.4.36.41.36.42.37.42.35.4.37.42.34.39.38.44.35.4.37.42.35.4.36.41.37.43.35.4.37.42.34.39.38.44.35.4.37.42.36.4.36.41.37.42.37.42.35.4.37.42.34.39.38.44.35.4.37.42.35.4.37.42.37.42.35.4.37.42.34.39.38.44.35.4.37.42.35.4.36.41.36.42.37.42.35.4.36.41.37.41.37.42c6.38,7.53,14.49,11.13,19.79,12.1a11.16,11.16,0,0,0,13.08-12.33c-2-16.11,6.74-66.87,30.49-144.75,3.66.08,6.9.22,9.8.38l.21.23.35.4.37.43.35.4.36.41.38.43.35.4.37.43.34.39.38.44.35.4.37.42.35.4.36.41.36.42.37.43.35.4.37.43.34.39.38.44.35.4.37.43.35.4.36.42.37.43.35.4.38.43.34.39.38.44.35.4.37.43.35.4.36.41.36.42.37.43.35.4.36.41.36.41.37.43a24.88,24.88,0,0,0,18.83,8.92,25.93,25.93,0,0,0,8.21-1.37,20.51,20.51,0,0,0,8.73-5.91,34,34,0,0,0,17.84,6.8l.67,0a11.15,11.15,0,0,0,8.7-18.12c-.41-.74-5-10.73,11.37-60,9.55-28.8,22.92-61.18,33-84.94,4.6-.28,8.75-.48,12.52-.6l.07.07.36.41c.12.14.24.28.37.42l.35.4.38.43.36.41.37.42.36.41.36.41.36.41.37.42.36.41.37.42.35.4.38.43.36.41.37.42.36.41.36.41.37.42.36.41c.12.14.24.28.37.42s.23.27.35.4l.38.43.36.41.37.42.36.41.36.41c.12.14.24.28.36.41l.37.42.36.41.36.41.36.41.37.42a11.12,11.12,0,0,0,3.78,2.89,44.74,44.74,0,0,0,17.13,3.85h0c7,0,13.08-2.28,17.59-6.58C971.55,494.12,973.28,486,970.4,478.24Zm-455.28,17.4-.09.15-.24-.27-.37-.42-.35-.4-.36-.42-.37-.42-.36-.4-.37-.42-.35-.39-.38-.44-.36-.4-.37-.42-.36-.4-.36-.41-.36-.42-.37-.42-.36-.4-.36-.41-.36-.41c7.75-9.41,11.86-19.12,11.89-28.52,10.56-.45,20.32-1.21,28.8-2.07C535.31,465.22,522.17,484.13,515.13,495.64Zm102.68-30.48c-.83,1.94-2.12,5-3.72,8.74l0-.05-.36-.41-.36-.41-.36-.41-.37-.42-.36-.41-.36-.41-.36-.41-.37-.42c-3.5-4-8.58-6.42-11.35-7.71a97.26,97.26,0,0,0-9.82-3.9,11.13,11.13,0,0,0-10.26,1.76,36.16,36.16,0,0,0-11.19-5.09c7.27-1,11.79-1.84,12.52-2a348.41,348.41,0,0,0,37.49-8.74Zm13.23-9h0a11.12,11.12,0,0,0-7.32,1.21c.06-5,.08-9.72.06-14.09q4.35-1.35,8.62-2.82C632,445.26,631.52,450.63,631,456.19Zm18.73,8.27a32.74,32.74,0,0,0-8.45-5.21c.29-7.64.58-15.31.85-22.31q4.3-1.64,8.51-3.39C650.47,443.86,650.13,454.85,649.77,464.46Zm26.89-4.88a20.4,20.4,0,0,0-4.59-.77h-.52a14.46,14.46,0,0,0-3.24.39c-.43-1.83-1.14-2.59-1.83-2.63-2.17-.13-3.31,2.5-3.94,4.87a49.45,49.45,0,0,0-7.52,5c.24-10.12.57-21.63,1.07-35.2q2.41-1.06,4.8-2.16c-.28,2.87-.6,5.25-.89,6.6-1.25,5.82.57,17.17,5.6,16.42,6.3-.93,5.13-17.94,4.24-27.32q4-2,7.93-4.14C677.48,430.5,677.09,444.06,676.66,459.58Zm26.6-32.46c-.25,5.42-2.44,21.57-1.63,28.87.25,2.3.1,11.61-.24,23.59l-.21-.24-.35-.4-.37-.42-.34-.39-.38-.44-.35-.4-.37-.42-.35-.4-.36-.41-.37-.42-.35-.4-.37-.42-.34-.39-.38-.44-.35-.4-.37-.42-.35-.4-.36-.41-.36-.42-.21-.24a4.2,4.2,0,0,0,0-1c-.21-1.86-1.57-3.24-3-3.07a2.15,2.15,0,0,0-.55.14,34.37,34.37,0,0,0-7.73-5.58v-.46c.35-18.19.77-33.89,1.46-44.88q2.73-1.58,5.41-3.21c.34,3.62.6,7,.78,8.62.5,4.49-2.22,10.76-2.6,17.61a87.81,87.81,0,0,0,1.61,20.56c1,3.87,4,4.1,5,.86s1.38-28.56,1.7-33.42-.8-17.52,1.38-18.33S703.51,421.69,703.26,427.12Z"/><ellipse cx="335.63" cy="809.93" rx="3.39" ry="2.68" transform="matrix(0.11, -0.99, 0.99, 0.11, -506.3, 1054.44)"/><path d="M360.94,795.5c-1.13.07-2.31,2-2.25,7.51s-2.55,10.23-1.3,13.49c.86,2.25,6.28,3.16,7.87-.93,1.84-4.72.66-10.25.3-12.09S364.27,795.3,360.94,795.5Z"/><ellipse cx="376.47" cy="841.62" rx="3.11" ry="2.49" transform="translate(-501.45 1123.24) rotate(-83.69)"/><path class="cls-2" d="M359.24,330.66c-1.11-8.8-3.94-32-4.45-34.64-.58-3.06-1.17-7-1.6-9.33s-.29-7.26-1.46-7.15-.29,4.52,0,6.56.29,5,1,6.64.78,7.07,1.07,9.11-2.24,3.65-2.82,1.46-1.46-11.23-1.75-13.56.44-6.71-1.46-6.13-.15,10.21.88,15c.84,4,3.76,27.94,4.76,36.25C355.51,333.51,357.44,332.09,359.24,330.66Z"/><path class="cls-2" d="M376.81,303.75a46,46,0,0,0,.81,5.33,47.26,47.26,0,0,0,2-4.34c-1.1-1.91-1.55-6.61-1.55-8.28,0-1.9-1-4.23-1.17-8.6s-.58-7.87-2-7.87-1.17,5.4-1,6.56a42.07,42.07,0,0,0,1.31,7.15A48.49,48.49,0,0,1,376.81,303.75Z"/><path class="cls-2" d="M539.66,336.74c16.79-2.39,31.79.07,38.61,5.62C580,337,587,334.82,587,334.82c-6.95-1.62-14.15-7-17.21-10.36s-4.81-3.94-9.77-7.87-5.4-7.44-6.12-11.81.87-5.25,2.48-6.71c29.42-23.11,26.47-40.83,26.47-40.83,4,7.66,2,20.71,2,20.71s14.73-17.06,41.85-19.69,45.06,8.46,45.06,8.46-4.37-18.6-6.42-21c-2.63-3.09-22.78-8.44-44.33-11.37-19.1-2.6-39.37-3.13-48.71-1-7.73,1.75-29.29,24.91-30,26.65-1.8,4.76-3.37,8.93-3.37,10.39s4.29,10.06,7.88,10.86c5.18,1.17,11-13,12.23-12.51.6.23.46.91.38,5.73-.11,6.85-9,11.52-10.65,19.54s1.79,18,4.37,21.87a76.16,76.16,0,0,0,22.75,21.58c-16.7-5.61-37.37-5.94-50.39-1.35C513,340.51,507,347,507,347c1.42-4.92,9.35-10.74,13.13-13.56,4.34-3.25,5.76-4.23,7.62-9.37S528.87,308,526,300.65s-6.34-8.09-13.12-12.58a25.82,25.82,0,0,1-9.3-12.14c4.16,5.69,12.14,9.3,15.42,8.53s4.38-8,4.38-8-6.52-11.77-9.37-13.64c-10.76-7-31.65-16.11-47.83-14.36-13.36,1.44-56,19.8-68.36,25.11-.11.34-.23.68-.32,1-.43,1.49-2.38,5.64-2.3,7.58a88.53,88.53,0,0,0,1.42,11.52c.32,1.71,1.39,9.85,1.77,12.71,9.28-11.38,31.32-22.69,52-23.36,22.75-.73,36.31,8.9,36.31,8.9a33.25,33.25,0,0,1-5.1-19.25c4.74,13.56,22.09,26.1,38.35,31.06,1.73.53,2.73,3.87,3.17,9.26s-2.85,8.12-7.55,15.9a66.05,66.05,0,0,1-16.84,18.81,13.11,13.11,0,0,1,7.86,2.29C512.93,344,525.15,338.8,539.66,336.74Z"/><path class="cls-2" d="M672.12,222.38s28.73-14,30-20-4.81-41.27-11.37-52.65c-1.47-2.55-22.75-5.1-23.63-5a62.74,62.74,0,0,0-35.44,20.85s-2.26.22-1.68-6.2c0,0-2.62,5.47-.07,13.85.51,1.9-2,5.76-5.1,7.66C624.87,181,656.95,202.44,672.12,222.38Z"/><path class="cls-2" d="M362.08,298.36c-2.62-.15-2.48-5.4-2.77-9.33a43.37,43.37,0,0,0-1.31-8.17c-.73-3.35-2.37-3.06-2.62-2a16.68,16.68,0,0,0,.29,3.21l6.39,46.29a71.82,71.82,0,0,0,12.17-13.63c-.38-3.56-1.75-10.51-2.38-14.14-.73-4.23-1.75-8.9-2.48-15.89s-2.45-6.36-2.92-6.12c-1,.51-.44,2.48-.15,3.94s1.46,9.19,1.75,10.64,1.17,8.31,2,12.69,1.31,9.63-.44,9.48-2.48-8.17-2.77-10.06-1-8.46-1.46-10.65a65.88,65.88,0,0,1-1.17-8.46c-.15-2.77-.06-6.67-1.46-6.56-1.17.09-.29,3.06-.29,4.23s-.14,6.27.88,8.31S364.7,298.5,362.08,298.36Z"/><path class="cls-2" d="M464.45,243.89c13.78-2.19,41.12,5.47,53.37,15.75,2.73,2.29,7.22,9.84,7.22,9.84l-.22-38.72,10.94,32.37s1.21-4.56,2.26-6c2.7-3.65,22.66-25.59,32.74-28.14,10.31-2.61,33-1.9,52.72,1.09a301.37,301.37,0,0,1,39.81,9c-1.75-2.41-9.84-9.62-16.19-16.41S618,195.55,594,185.92a128.15,128.15,0,0,0-39.08-8.46c-33.86-2-76,5.67-105.44,28.73-15.25,11.93-39.86,43.91-48.88,61.3C415.14,260.5,450.78,246.06,464.45,243.89Z"/><path class="cls-2" d="M420.56,210.13s-6.71-2.33-7.15-5.1-.29-10.06-4.81-14.73c0,0,1.17,5.54.58,6.13s-10.5-6.42-22-8.6a91.91,91.91,0,0,0-22.6-1.17s-21.78,9.38-22.9,11.08c-2,3.06-2.91,39.6,3.35,54,2.63,6.05,31.72,11.37,37.84,12.25C382.86,264,392.27,241,420.56,210.13Z"/><ellipse class="cls-3" cx="541.61" cy="346.76" rx="19.77" ry="4.11" transform="matrix(0.99, -0.14, 0.14, 0.99, -43.48, 79.83)"/><path class="cls-2" d="M705.07,312.5c.53,1.13-9.51,9.15-20.12,15.17-11.15,6.33-29.9,3.65-29.9,3.65,5.25,2.77,17.5,4.52,17.5,4.52-14.84,3.76-50.38.58-71.06-3.57A244.66,244.66,0,0,1,574,325.15a50.91,50.91,0,0,0,23.51,10.17c-9.49,1.21-15.61,4.7-16.88,9.57a8.32,8.32,0,0,1,1.42,3.54c1.37,9.6-15.41,19.94-37.47,23.08s-41.06-2.09-42.43-11.69c-.37-2.6.6-5.24,2.62-7.79-4.88-3.36-17.29-1.55-17.29-1.55,15.2-6.78,20.45-15.8,20.45-15.8-29.38,22.75-86.11,39.08-86.84,36.75-.2-.63,15.75-9.19,15.75-9.19-12.25,5.83-30.41,5-34.89,4.48s-23.08-9-23.08-9a88,88,0,0,0,21.22-3c-23.41.55-35-3.61-35-3.61s4.16,18,.87,18.16-4.27-18.48-4.27-18.48c-4.59,3.94-15.28,8.75-15.28,8.75,41.71,68,145.83,71.46,202.71,65a331.35,331.35,0,0,0,39.43-6.84,59.5,59.5,0,0,0,15.54-20.57c-1.11,9-4.08,14.89-6.34,18.25,104.26-28.17,143.13-98.31,143.13-98.31a155.43,155.43,0,0,1-31.06-11.37c-7.23,6.06-20.4,8.74-23.12,9.24C689.73,314.51,704.78,311.88,705.07,312.5ZM512,398.43c-10.38,0-23.47-2.76-32.27-8.75-2.56-1.74-10.72,3.06-10.72,4.37s1.2,10.39.33,11.16c-1.73,1.51-4.91-9.93-3.28-19.14,1.48-8.35,6.81-16,12.65-16.62s17.57,9,17.5,10.57-12.3-4.81-13.34-4.45c-.62.22.63,10.55,1.39,11.08,12.1,8.49,28.29,10.9,45.65,9.11A59.1,59.1,0,0,1,512,398.43Z"/><path class="cls-3" d="M595.26,312.5c1.57.29,12.28,1.21,17.06-.29,13.12-4.12,44.19-31.94,44.19-31.94L583.6,305.21C588.85,311,593.57,312.19,595.26,312.5Z"/><path class="cls-4" d="M771.6,303.4a5.07,5.07,0,0,0-3.65-2.74c-.38-.07-37.87-7-64.08-23.61a9.43,9.43,0,0,0-3.47-4.41c-1.69-1.16-2.76-2-3.45-3.59-.27-.69-.95-3.54-1.55-6.06-1.59-6.68-3.85-16.12-6.82-23.33,9.25-4.94,29.18-16.61,34.11-27.77s.76-31.1-1.53-40a5.06,5.06,0,0,0,1-4.41c-.24-1-6-24.68-14.53-34.88-8.94-10.67-55.95-13-67.1-13-8.67,0-14.72.63-18,1.87-10.35,3.94-33.73,28.14-41.21,36.07a164.27,164.27,0,0,0-35.51-3.59,200.79,200.79,0,0,0-93.71,23.59c-9.24-5.52-38.38-22.43-51.45-24.2a19.47,19.47,0,0,0-2.57-.16c-9.62,0-27.75,6-41.51,11.55-8.67,3.52-29.38,12.48-34.34,19.61-5.7,8.21-7,40.23-2.5,62.29,1.76,8.65,4.29,15.26,7.56,19.75a5.09,5.09,0,0,0-.06.77c0,4.18.72,11.58,5.51,14.16l.34.17a7.22,7.22,0,0,0,1.9.52,97.24,97.24,0,0,1,3.54,14.53c.8,5.05,4.25,28.06,5.58,38.05a105.22,105.22,0,0,1-22.76,9,5.07,5.07,0,0,0-3.65,5.85c.19,1,4.86,24.15,28.29,48.08,21.29,21.75,62.92,48.32,140.32,51.42,5,.21,10.24.32,15.52.32h0a468.21,468.21,0,0,0,77.18-6.57c56.36-9.94,104.53-32.34,143.17-66.56a5.07,5.07,0,0,0,1.7-3.46C746.8,351.79,758,334.29,771.57,308A5.07,5.07,0,0,0,771.6,303.4Zm-53.19,67.36.44,1.53c-45.52,40.32-96.73,57.61-140.69,65.36,0,0-44,8.17-91.62,6.18C339.92,438,322.7,348.45,322.7,348.45a107.32,107.32,0,0,0,26.89-11.15c-.79-6.9-5.2-36.29-6-41.57-.88-5.54-2.92-13.67-4.3-16.77-.91-2-3.43-1.82-4.08-2.11-2.84-1.53-2.84-9.7-2.84-9.7l2.77-.15c-15.75-9.92-15.17-70.44-8.68-79.77S386.25,156.5,400,158.36c14.12,1.91,52,25,52,25,69.34-38,131-20.2,131-20.2s30.41-32.81,41.34-37,71.71.43,79.41,9.63c7.87,9.41,13.49,32.81,13.49,32.81l-2.11.44s8.46,28.22,2.92,40.76-36.17,27.56-36.17,27.56c5.4,9.48,9.08,30.55,10.39,33.61a13.12,13.12,0,0,0,5.25,5.8c1.75,1.2,1.64,2.84,2.44,3.76,27.42,17.94,67.08,25.08,67.08,25.08C753.79,331.47,742.84,349,718.42,370.76Z"/><path class="cls-3" d="M496.24,317.9c-.14-2.83-20.82-23.25-35.29-24.65-7.58-.73-30.55,8.33-31.64,12.83C423,331.9,441.83,343.61,457,345.61,480.35,348.67,496.54,323.73,496.24,317.9Z"/><path d="M502.19,359.82c1.37,9.6,20.36,14.84,42.43,11.69s38.84-13.48,37.47-23.08a8.32,8.32,0,0,0-1.42-3.54,7.86,7.86,0,0,0-.18,3.11l-2.62-3.61a8,8,0,0,1,.41-2.05c-6.82-5.54-21.82-8-38.61-5.62-14.51,2.07-26.73,7.24-33,13.28a8.17,8.17,0,0,1,1.77,1.64l-1.82,2.7a4.26,4.26,0,0,0-1.78-2.33C502.79,354.57,501.82,357.22,502.19,359.82ZM541,342.69c10.81-1.54,19.83-1,20.15,1.28s-8.18,5.32-19,6.86-19.83,1-20.15-1.28S530.22,344.23,541,342.69Z"/><path d="M484.28,386.66c-.76-.53-2-10.86-1.39-11.08,1-.37,13.27,6.05,13.34,4.45s-11.78-11.23-17.5-10.57-11.17,8.28-12.65,16.62c-1.63,9.21,1.55,20.65,3.28,19.14.88-.77-.33-9.84-.33-11.16s8.16-6.12,10.72-4.37c8.79,6,21.88,8.73,32.27,8.75a59.1,59.1,0,0,0,17.9-2.66C512.58,397.56,496.39,395.15,484.28,386.66Z"/><path d="M697.53,276.81a13.12,13.12,0,0,1-5.25-5.8c-1.31-3.06-5-24.13-10.39-33.61,0,0,30.62-15,36.17-27.56s-2.92-40.76-2.92-40.76l2.11-.44s-5.61-23.41-13.49-32.81c-7.7-9.19-68.47-13.78-79.41-9.62s-41.34,37-41.34,37-61.69-17.79-131,20.2c0,0-37.86-23.1-52-25-13.75-1.86-67.16,19.66-73.57,28.88s-7.07,69.85,8.68,79.77l-2.77.15s0,8.17,2.84,9.7c.66.29,3.17.07,4.08,2.11,1.38,3.1,3.43,11.23,4.3,16.77.83,5.28,5.24,34.67,6,41.57a107.32,107.32,0,0,1-26.89,11.15S339.92,438,486.55,443.84c47.62,2,91.62-6.18,91.62-6.18,44-7.75,95.17-25,140.69-65.36l-.44-1.53c24.43-21.8,35.38-39.29,48.63-65.11,0,0-39.67-7.15-67.08-25.08C699.17,279.65,699.28,278,697.53,276.81ZM630,173.31c-2.55-8.38.07-13.85.07-13.85-.58,6.42,1.68,6.2,1.68,6.2a62.74,62.74,0,0,1,35.44-20.85c.88-.15,22.16,2.41,23.63,5,6.56,11.38,12.69,46.67,11.37,52.65s-30,20-30,20C656.95,202.44,624.87,181,624.87,181,628,179.07,630.48,175.2,630,173.31ZM449.43,206.19c29.48-23.06,71.58-30.78,105.44-28.73A128.15,128.15,0,0,1,594,185.92c24.06,9.62,46.81,30,53.15,36.75s14.44,14,16.19,16.41a301.37,301.37,0,0,0-39.81-9c-19.73-3-42.41-3.71-52.72-1.09-10.08,2.55-30,24.5-32.74,28.14-1,1.42-2.26,6-2.26,6l-10.94-32.37.22,38.72s-4.49-7.56-7.22-9.84c-12.25-10.28-39.59-17.94-53.37-15.75s-49.31,16.61-63.9,23.61C409.57,250.1,434.19,218.12,449.43,206.19ZM345,251.76c-6.26-14.43-5.36-51-3.35-54,1.11-1.7,22.9-11.08,22.9-11.08a91.91,91.91,0,0,1,22.6,1.17c11.52,2.19,21.44,9.19,22,8.6s-.58-6.12-.58-6.12c4.52,4.67,4.38,12,4.81,14.73s7.15,5.1,7.15,5.1C392.27,241,382.86,264,382.86,264,376.73,263.14,347.64,257.82,345,251.76Zm18.38,40.32c-1-2-.88-7.14-.88-8.31s-.88-4.14.29-4.23c1.4-.11,1.31,3.79,1.46,6.56a65.88,65.88,0,0,0,1.17,8.46c.44,2.19,1.17,8.75,1.46,10.65s1,9.92,2.77,10.06,1.31-5.1.44-9.48-1.75-11.23-2-12.69-1.46-9.19-1.75-10.64-.86-3.42.15-3.94c.46-.24,2.19-.88,2.92,6.12s1.75,11.67,2.48,15.89c.63,3.63,2,10.58,2.38,14.14a71.82,71.82,0,0,1-12.17,13.63L355.66,282a16.68,16.68,0,0,1-.29-3.21c.26-1,1.9-1.31,2.63,2a43.37,43.37,0,0,1,1.31,8.17c.29,3.94.15,9.19,2.77,9.33S364.41,294.13,363.39,292.09Zm10.5-5.54c-.14-1.17-.44-6.56,1-6.56s1.9,3.5,2,7.87,1.17,6.71,1.17,8.6c0,1.67.45,6.37,1.55,8.28a47.26,47.26,0,0,1-2,4.34,46,46,0,0,1-.81-5.33,48.49,48.49,0,0,0-1.6-10.06A42.07,42.07,0,0,1,373.89,286.54Zm-25.23,12.1c-1-4.81-2.77-14.44-.88-15s1.17,3.79,1.46,6.13,1.17,11.37,1.75,13.56,3.12.58,2.82-1.46-.35-7.51-1.07-9.11-.73-4.59-1-6.64-1.13-6.45,0-6.56,1,4.81,1.46,7.15,1,6.27,1.6,9.33c.51,2.67,3.34,25.84,4.45,34.64-1.79,1.43-3.72,2.84-5.81,4.23C352.42,326.58,349.5,302.62,348.66,298.65Zm392.29,18.52s-38.87,70.14-143.13,98.31c2.26-3.36,5.23-9.28,6.34-18.25a59.5,59.5,0,0,1-15.54,20.57,331.35,331.35,0,0,1-39.43,6.84c-56.88,6.42-161,2.92-202.71-65,0,0,10.68-4.81,15.28-8.75,0,0,1,18.59,4.27,18.48s-.87-18.16-.87-18.16,11.59,4.16,35,3.61a88,88,0,0,1-21.22,3s18.59,8.42,23.08,9,22.64,1.35,34.89-4.48c0,0-15.95,8.55-15.75,9.19.73,2.33,57.46-14,86.84-36.75,0,0-5.25,9-20.45,15.8,0,0,12.41-1.81,17.29,1.55a20.45,20.45,0,0,1,1.84-2,13.11,13.11,0,0,0-7.86-2.29,66.05,66.05,0,0,0,16.84-18.81c4.69-7.78,8-10.5,7.55-15.9s-1.45-8.73-3.17-9.26c-16.26-5-33.61-17.5-38.35-31.06a33.25,33.25,0,0,0,5.1,19.25s-13.56-9.63-36.31-8.9c-20.72.66-42.77,12-52,23.36-.37-2.86-1.44-11-1.77-12.71a88.53,88.53,0,0,1-1.42-11.52c-.09-1.94,1.87-6.09,2.3-7.58.09-.31.21-.65.32-1,12.33-5.31,55-23.67,68.36-25.11,16.19-1.75,37.08,7.33,47.83,14.36,2.85,1.86,9.37,13.64,9.37,13.64s-1.09,7.22-4.38,8-11.27-2.84-15.42-8.53a25.82,25.82,0,0,0,9.3,12.14c6.78,4.48,10.28,5.25,13.12,12.58s3.57,18.3,1.71,23.44-3.28,6.13-7.62,9.37c-3.77,2.82-11.7,8.64-13.13,13.56,0,0,6-6.52,18.48-10.94,13-4.59,33.69-4.27,50.39,1.35a76.16,76.16,0,0,1-22.75-21.58c-2.58-3.85-6-13.85-4.37-21.87s10.54-12.69,10.65-19.54c.08-4.81.21-5.49-.38-5.73-1.22-.47-7.05,13.67-12.23,12.51-3.59-.81-7.88-9.41-7.88-10.86s1.57-5.63,3.37-10.39c.66-1.74,22.22-24.9,30-26.65,9.34-2.11,29.6-1.58,48.71,1,21.56,2.94,41.71,8.28,44.33,11.37,2,2.4,6.42,21,6.42,21s-17.94-11.08-45.06-8.46-41.85,19.69-41.85,19.69,2.08-13.05-2-20.71c0,0,3,17.72-26.47,40.83-1.61,1.46-3.21,2.33-2.48,6.71s1.17,7.87,6.12,11.81,6.71,4.52,9.77,7.87S580,333.19,587,334.82c0,0-6.91,2.16-8.67,7.54a12.18,12.18,0,0,1,2.4,2.55c1.27-4.87,7.39-8.36,16.88-9.57A50.91,50.91,0,0,1,574,325.15a244.66,244.66,0,0,0,27.45,7.11c20.67,4.16,56.22,7.33,71.06,3.57,0,0-12.25-1.75-17.5-4.52,0,0,18.74,2.68,29.9-3.65,10.61-6,20.66-14,20.12-15.17-.3-.62-15.34,2-18.3,2.53,2.72-.5,15.88-3.18,23.12-9.24A155.43,155.43,0,0,0,740.95,317.17ZM429.31,306.09c1.09-4.5,24.06-13.56,31.64-12.83,14.48,1.39,35.15,21.82,35.29,24.65.29,5.83-15.9,30.77-39.23,27.71C441.83,343.61,423,331.9,429.31,306.09Zm227.2-25.81s-31.06,27.82-44.19,31.94c-4.78,1.5-15.49.58-17.06.29s-6.42-1.46-11.67-7.29Z"/><path d="M580.5,348a7.86,7.86,0,0,1,.18-3.11,12.18,12.18,0,0,0-2.4-2.55,8,8,0,0,0-.41,2.05Z"/><path d="M506.6,354.36l1.82-2.7a8.17,8.17,0,0,0-1.77-1.64,20.45,20.45,0,0,0-1.84,2A4.26,4.26,0,0,1,506.6,354.36Z"/><path class="cls-5" d="M392.88,405.78s27.21-11.83,64.38-5.07S499,429.44,499,429.44l-2,10.14-83.14-13.52Z"/><path class="cls-5" d="M469.94,437.72l-.52,5a62,62,0,0,1-4.2,4.68l-15.22,1-9.89-1.18-.73-3.69,1.58-4.81,19.6-5.11Z"/><path class="cls-5" d="M397.45,408.57l-4.56-2.79s-16.45,6.69-16,28.06l19.25,7.21Z"/><path class="cls-2" d="M338.83,573.32q2.66.43,5.21,1a112.26,112.26,0,0,0,9.14-7.55c-.7-1.2-1.34-2.39-1.9-3.54A109.88,109.88,0,0,1,338.83,573.32Z"/><path class="cls-2" d="M318.89,539a26.48,26.48,0,0,1-3.45.23c-.84,0-1.69,0-2.52-.12-.65,2.06-1.09,3.78-1.4,5.19A55.9,55.9,0,0,0,318.89,539Z"/><path class="cls-2" d="M329.51,625.68c2.31-6.81,3.8-11.25,4.78-14.23h.27c8.41,0,13.41,1.15,16,2.14a3.94,3.94,0,0,0-.55-1.68c-.76-.82-5.78-3.29-18.11-3.29h-.27c-1,3-2.48,7.42-4.78,14.23-3.73,11-8.78,25.93-14.29,42.84,1.59-1,3.13-2.09,4.64-3.19C321.93,648.08,326.23,635.38,329.51,625.68Z"/><path class="cls-2" d="M371.63,585.8c-.1-.48-.21-1-.29-1.45a46.54,46.54,0,0,1-10.44-7.66A46,46,0,0,0,371.63,585.8Z"/><path class="cls-2" d="M388,446a11,11,0,0,1-6.56-2.2,11,11,0,0,0,13,4.38c2.26-.81,4.53-1.58,6.79-2.32l1.37-4.12q-5.43,1.66-10.83,3.61A11,11,0,0,1,388,446Z"/><path class="cls-2" d="M378,514.24c.34,10.21-4.33,20.48-9.8,28.91a15.07,15.07,0,0,0,3,2.26c1.29-2,2.53-4.15,3.67-6.35q2.23-11,5.59-24.16A22.37,22.37,0,0,0,373.13,501,21.83,21.83,0,0,1,378,514.24Z"/><path class="cls-2" d="M388.49,611.3l-.75-.42c.14.43.29.86.42,1.29Z"/><path class="cls-2" d="M525.09,576.25h.5c2.52,0,8.29,0,19.41-9.28,1.36-3.07,2.93-6.24,4.73-9.53.06-.12.15-.22.21-.33-16.2,16.3-24,16.3-27,16.3h-.5c-4.78-.15-9.69-2.93-14-7.07C513.28,572,519.28,576.07,525.09,576.25Z"/><path class="cls-2" d="M476.3,718.29a22.44,22.44,0,0,1-7-1.09,32.74,32.74,0,0,1-12.21-7.89c4.6,5.31,9.89,9.1,14.88,10.73a22.44,22.44,0,0,0,7,1.09c13.06,0,25.48-10.87,35-22.45,2-4.66,4-9.42,5.8-14.26C510,699,493.71,718.29,476.3,718.29Z"/><path class="cls-2" d="M467.19,613.36a27.86,27.86,0,0,0-4.46-5.29,21.41,21.41,0,0,1,3.7,6.26Z"/><path class="cls-2" d="M449,444.48c1.86-1.38,3.49-2.71,4.93-4,.47-1.41.93-2.81,1.4-4.22,1,0,1.93.08,2.77.15.74-.81,1.36-1.57,1.86-2.25a44.76,44.76,0,0,0-7.3-.73Q450.85,439,449,444.48Z"/><path class="cls-2" d="M431.6,503c-3.29,12.3-6.21,24.19-8.73,35.55q1.85-.82,3.7-1.71,3.42-15,7.69-31c3.93-1.31,7.92-2.85,11.94-4.63,2.24-.1,4.5-.15,6.76-.15a105.86,105.86,0,0,1,19.63,1.58,21.65,21.65,0,0,0,1.16-1.93c-3.91-1.16-11.71-2.49-23.46-2.49-2.26,0-4.52.05-6.76.15C439.52,500.12,435.53,501.66,431.6,503Z"/><path class="cls-2" d="M416.42,593.25c29.15-3.54,62.58-19.2,83.12-39.16-.63-1.25-1.19-2.52-1.68-3.79-20.45,20.42-54.49,36.53-84.11,40.12-.46,4.15-.76,7.81-.88,10.77.91.46,1.82,1,2.73,1.53C415.75,600,416,596.81,416.42,593.25Z"/><path class="cls-2" d="M790.31,575c-5.35-.45-10.54-3.4-14.9-7.59a35.44,35.44,0,0,0,7.69,6.82,98.4,98.4,0,0,1,9.37,3.53l.51.07c.51,0,1,.07,1.57.07a22.32,22.32,0,0,0,6.51-1c.24-1.33.49-2.69.78-4.11a24.88,24.88,0,0,1-10,2.33C791.34,575,790.82,575,790.31,575Z"/><path class="cls-2" d="M449.49,733.53c1.77,11.52,6.93,24.7,11.87,28.35-4-5.51-7.75-16.07-9.2-25.52a11,11,0,0,0-4.33-7.2A11,11,0,0,1,449.49,733.53Z"/><path class="cls-2" d="M807.74,453.27a36.18,36.18,0,0,1-.18-4.31q-1,2.29-2,4.62A10.93,10.93,0,0,1,807.74,453.27Z"/><path class="cls-2" d="M702,606.18l.93-.05.88-3-5.24.29A32.59,32.59,0,0,1,702,606.18Z"/><path class="cls-2" d="M832.43,387.22a12.7,12.7,0,0,1-.62,10.27q-3.17,6.12-6.38,12.66a11,11,0,0,1,2.63-.33,10.88,10.88,0,0,1,1.55.12c1.63-3.28,3.25-6.51,4.87-9.62a12.7,12.7,0,0,0,.62-10.27c-.42-1.15-1.3-3.58-4.81-6.75A13.29,13.29,0,0,1,832.43,387.22Z"/><path class="cls-2" d="M901.26,419.93c-.29,1.46-.85,3.15-2.79,7.81q1.85.25,3.61.53a31.16,31.16,0,0,0,1.84-5.5c1.45-7.27-1.75-12.94-6.37-17.21A16.85,16.85,0,0,1,901.26,419.93Z"/><path class="cls-2" d="M852.25,425.25l.24-.59a25.9,25.9,0,0,0-2.07-2.12A19.14,19.14,0,0,1,852.25,425.25Z"/><path class="cls-2" d="M676.17,662.39q2.55-5.39,4.86-9.74l.49.25a20.31,20.31,0,0,0,2.57,1l1.62-1.94a19.47,19.47,0,0,1-6.86-1.9l-.49-.25q-2.3,4.35-4.86,9.74c-2,4.26-3.76,8.23-5.24,11.84,2.28-2.3,4.73-4.88,7.29-7.69Z"/><path class="cls-2" d="M629.14,554.16q.88-1.57,1.8-3.12a17.92,17.92,0,0,1-.63-4.49,17.66,17.66,0,0,1,.11-1.92q-2,3.29-3.95,6.7c-1.78,5.52-3.28,10.77-4.47,15.7l3.45-.24Q627,560.75,629.14,554.16Z"/><path class="cls-2" d="M651.37,466.38c.16.21.33.41.49.62l.09-.07C651.76,466.75,651.57,466.56,651.37,466.38Z"/><path class="cls-2" d="M769.05,559.52a42.35,42.35,0,0,1-2.26-4q-2.31,6.79-4.56,13.64l3.4.64Q767.33,564.62,769.05,559.52Z"/><path class="cls-2" d="M612.56,473.8l.41-1a19.87,19.87,0,0,0-2.39-2.47A14.64,14.64,0,0,1,612.56,473.8Z"/><path class="cls-2" d="M645.53,623.16a27.08,27.08,0,0,0-1.56-5.76,25.49,25.49,0,0,0-3.89-6.56c5.06-.45,10.9-1,17.29-1.49,1.25-1.18,2.51-2.32,3.8-3.36-8.92.71-17,1.42-23.75,2a25.48,25.48,0,0,1,3.89,6.56,29.91,29.91,0,0,1,1.94,11.89C644,625.34,644.75,624.25,645.53,623.16Z"/><path class="cls-2" d="M697.58,482a16.85,16.85,0,0,1,.05,3.58q1.05-1.52,2.18-3.09a26.54,26.54,0,0,0-8-13.35A25.24,25.24,0,0,1,697.58,482Z"/><path class="cls-2" d="M681.31,564.24l2.83,0q-.72-.8-1.4-1.65Z"/><path class="cls-2" d="M361.6,686.38q-.91.93-1.84,1.86c-18.86,18.68-41.57,30.45-64.69,33.68-8.08,27.63-13.92,50.73-17.38,68.75-6.11,31.86-3,39.3-2.65,40.06a11,11,0,0,1-10.54,17.65,41.64,41.64,0,0,1-20.56-10.63,41.37,41.37,0,0,0,23.23,13.46,11,11,0,0,0,10.54-17.65c-.38-.75-3.46-8.19,2.65-40.06,3.46-18,9.3-41.12,17.38-68.75,22-3.08,43.64-13.91,61.94-31.05C360.13,691.65,360.78,689.18,361.6,686.38Z"/><path class="cls-2" d="M411.45,675.28q-4.69,7.57-9.7,16.12c-6.79,19.65-7.54,24.94-7.6,26.18a11,11,0,0,1-14.46,11.1,33.64,33.64,0,0,1-11.86-7.23,33.69,33.69,0,0,0,14.52,10.07,11,11,0,0,0,14.46-11.1c.05-1.24.81-6.53,7.6-26.18q4.74-8.08,9.2-15.29A38.56,38.56,0,0,1,411.45,675.28Z"/><path class="cls-2" d="M228.36,554.87l-.06-.21c-1.63,3.34-3.2,6.71-4.67,10.07-1.63,8.67-2.82,16.88-3.55,24.45a11,11,0,0,1-16,8.69A66.51,66.51,0,0,1,189,587,64.12,64.12,0,0,0,206.7,600.7a11,11,0,0,0,16-8.69c.73-7.56,1.93-15.78,3.55-24.45,1.19-2.72,2.46-5.45,3.76-8.16A43.18,43.18,0,0,1,228.36,554.87Z"/><path class="cls-2" d="M183.32,580.2a32.79,32.79,0,0,1-2.56-4.53c-.89,11.58,1.24,14.43,1.39,14.62a11,11,0,0,1-12,17.4,48.64,48.64,0,0,1-17.93-11.06,48.38,48.38,0,0,0,20.6,13.9,11,11,0,0,0,12-17.4C184.68,592.94,182.75,590.34,183.32,580.2Z"/><path class="cls-2" d="M163.29,475.54c-.28.05-.56.1-.84.13-3.22.39-31.73,3.82-39.71,3.82-.56,0-1.05,0-1.46,0a15.78,15.78,0,0,1-9.79-4.33c3,3.72,7,6.85,12.45,7.17.41,0,.9,0,1.46,0,6.79,0,28.44-2.48,36.73-3.46Z"/><path class="cls-2" d="M447.6,696.3c-.55-1.07-1.08-2.16-1.56-3.29a21.23,21.23,0,0,1-8.54,1.92c-5.72,0-12.54-3.61-18.18-9.12,6,7.08,14.19,12,20.85,12A20.58,20.58,0,0,0,447.6,696.3Z"/><path class="cls-2" d="M575.51,625.33c.5-.79,1-1.6,1.59-2.42a22,22,0,0,0-1.72-4c.16-.2.32-.39.46-.6a11,11,0,0,0,.64-11.31c-1.36-2.59,4-11.88,6.08-15.38,3.11-5.35,5.57-9.58,5.57-14.43a14.43,14.43,0,0,0-.12-1.82,37,37,0,0,0,4-3c.71.76,1.46,1.48,2.21,2.18.07-.14.13-.27.2-.41a44,44,0,0,1-5.08-4.61,37,37,0,0,1-4,3,14.43,14.43,0,0,1,.12,1.82c0,4.85-2.46,9.08-5.57,14.43-2,3.5-7.44,12.79-6.08,15.38a11,11,0,0,1-.64,11.31c-.14.21-.31.4-.46.6a22.4,22.4,0,0,1,2.63,7.8C575.41,624.38,575.45,624.86,575.51,625.33Z"/><path class="cls-2" d="M563.83,699.15c-8.58,24.64-21.3,49.31-37.13,67.71-17.28,20.09-36.89,30.76-56.7,30.86h-.23a40.38,40.38,0,0,1-28.63-11.46,40.5,40.5,0,0,0,31.3,14.29h.23c19.81-.1,39.42-10.77,56.7-30.86,15.63-18.17,28.23-42.46,36.8-66.8C565.35,701.67,564.56,700.42,563.83,699.15Z"/><path class="cls-2" d="M225.64,414.5l.15-.37c-.48-.52-1-1-1.51-1.5A21.2,21.2,0,0,1,225.64,414.5Z"/><path class="cls-2" d="M953.19,458.81A29.31,29.31,0,0,0,945.71,448a27.36,27.36,0,0,1,4.81,8c2.85,7.67,1.14,15.76-4.46,21.12-4.47,4.28-10.52,6.54-17.48,6.54h0a44.58,44.58,0,0,1-17.07-3.84,10.89,10.89,0,0,1-1.91-1.15,11,11,0,0,0,4.58,4,44.59,44.59,0,0,0,17.07,3.84h0c7,0,13-2.26,17.48-6.54C954.34,474.57,956,466.48,953.19,458.81Z"/><path class="cls-2" d="M907.46,463.09q-1.87,0-4.06,0c-5.64,0-12.36.24-20.41.74-10.15,23.81-23.56,56.29-33.13,85.17-16.38,49.43-11.7,59.29-11.31,60A11,11,0,0,1,830,626.83l-.66,0A33.85,33.85,0,0,1,811.46,620a20.38,20.38,0,0,1-8.76,6,25.79,25.79,0,0,1-8.16,1.36A24.19,24.19,0,0,1,778,620.67c2.4,3,8.82,9.45,19.2,9.45a25.79,25.79,0,0,0,8.16-1.36,20.38,20.38,0,0,0,8.76-6A33.85,33.85,0,0,0,832,629.64l.66,0a11,11,0,0,0,8.57-17.89c-.39-.69-5.07-10.55,11.31-60,9.57-28.87,23-61.35,33.13-85.17,8-.5,14.63-.74,20.24-.74A11,11,0,0,1,907.46,463.09Z"/><path class="cls-2" d="M679.74,707.85c-14.55,12.31-22.12,12.31-25.29,12.31a19.64,19.64,0,0,1-2.07-.11,25.84,25.84,0,0,1-15.27-7.32c4.33,5.15,10.17,9.32,17.94,10.15a19.64,19.64,0,0,0,2.07.11c2.93,0,9.62,0,22.11-9.73Q679.42,710.68,679.74,707.85Z"/><path class="cls-2" d="M631.74,706.28c-11.7,10.56-24.1,16.57-34.87,16.57a29.41,29.41,0,0,1-4.47-.34c-6.38-1-13.12-5.09-19-10.86,6.37,7.23,14.23,12.55,21.62,13.69a29.41,29.41,0,0,0,4.47.34c10.66,0,22.93-5.9,34.53-16.27C633.23,708.4,632.46,707.35,631.74,706.28Z"/><path class="cls-2" d="M773.46,606a11,11,0,0,1,1.36-2.32,191,191,0,0,0-23-1.63C731.07,670,718.88,727.68,721.25,747a11,11,0,0,1-12.9,12.16,35.09,35.09,0,0,1-17.05-9.25C697.65,757.4,705.73,761,711,762a11,11,0,0,0,12.9-12.16c-2.37-19.29,9.82-77,30.53-144.93C762.62,605.06,768.8,605.48,773.46,606Z"/><path class="cls-2" d="M356.73,475.31a32.32,32.32,0,0,1,1.59,16.2l.21.06a26.37,26.37,0,0,1,2.66.89,31.24,31.24,0,0,0-1.79-14.32,27.41,27.41,0,0,0-6.89-9.77A25.71,25.71,0,0,1,356.73,475.31Z"/><path class="cls-2" d="M500.64,437.29c.09,11.14-5.6,22.76-16.33,33.78,1.28.55,2.51,1.13,3.72,1.72,10-10.69,15.37-21.9,15.28-32.66a34,34,0,0,0-10.92-25A33.67,33.67,0,0,1,500.64,437.29Z"/><path class="cls-2" d="M273.44,463.32a11,11,0,0,1,.4-2.06c-1.64-.13-3.58-.24-5.84-.31A30.44,30.44,0,0,1,273.44,463.32Z"/><path class="cls-2" d="M311,460.34a19.52,19.52,0,0,1-.75,3.49q1.72-1.35,3.54-2.53a20.33,20.33,0,0,0-4.91-13.18,27.3,27.3,0,0,0-2.55-2.67A19.87,19.87,0,0,1,311,460.34Z"/><path class="cls-2" d="M600.16,681.15c.69.07,1.39.1,2.09.11,1.49-1.05,3.1-2.3,4.81-3.77a27.28,27.28,0,0,1-7,.95c-.84,0-1.69,0-2.52-.12a53.6,53.6,0,0,0-1.71,6.74,32,32,0,0,0,3.82-2C599.77,682.42,600,681.81,600.16,681.15Z"/><path class="cls-2" d="M512.9,496.37l.64-1.06a43.31,43.31,0,0,0-7.1-8.91A40.73,40.73,0,0,1,512.9,496.37Z"/><path class="cls-2" d="M291.56,575.26l.35-.08c-1-.88-2.07-1.82-3.07-2.81C289.72,573.38,290.62,574.34,291.56,575.26Z"/><path class="cls-2" d="M260,643.72h-.39c-9.73,0-17.71-2.71-22.95-7.36,5,6.37,14,10.19,25.61,10.19h.39a11.21,11.21,0,0,0,11-10,11.09,11.09,0,0,0-2.49-8.17,64.35,64.35,0,0,1,10.23-5.74l1.53-4.65a72.63,72.63,0,0,0-14.44,7.56,11.09,11.09,0,0,1,2.49,8.17A11.21,11.21,0,0,1,260,643.72Z"/><path class="cls-2" d="M253.34,463.61a21,21,0,0,1,5.5-2.77q-2.17,0-4.5.07Z"/><path class="cls-2" d="M243.11,709.23a46.43,46.43,0,0,0,9,8l.28-1A45.74,45.74,0,0,1,243.11,709.23Z"/><path class="cls-2" d="M287.65,476.2a19.11,19.11,0,0,1,3,7.88,12.86,12.86,0,0,1,.06,2.31c.57-.91,1.18-1.84,1.82-2.79a22.1,22.1,0,0,0-2.24-4.57,33.09,33.09,0,0,0,3.56.2c.62,0,1.23,0,1.82-.07,1-1.31,2-2.62,3-3.92a23.88,23.88,0,0,1-7.53,1.16A33.09,33.09,0,0,1,287.65,476.2Z"/><path class="cls-2" d="M277.89,394.74c.29,4.27-1.15,8.31-10.25,31.53l-.83,2.13q1.81.28,3.55.59c9.05-23.11,10.49-27.15,10.21-31.41-.35-5.28-3.07-9.45-6.64-12.69A17.46,17.46,0,0,1,277.89,394.74Z"/><path class="cls-2" d="M253.75,579.53c-.45,0-.88,0-1.31-.06-4.5-.39-9.15-2.9-13.24-6.81,4.67,5.5,10.41,9.16,15.91,9.64.42,0,.86.06,1.31.06h0c8.29,0,17.74-7.59,26.32-17.09-.78-1.07-1.54-2.17-2.24-3.3-8.69,9.71-18.32,17.55-26.75,17.55Z"/><polygon points="410.88 441.06 417.03 438.08 418.65 433.36 412.53 430.24 409.07 430.05 400.65 432.45 398.59 439.58 410.88 441.06"/><path d="M493.09,426.23l4.69.47s6.63,18-4.69,30.79l-4.47-8.5a15,15,0,0,0,1.63-5l2.5-2.92Z"/><path class="cls-4" d="M371.71,598.43c-10.33-10.9-26.38-16.83-46.42-17.15l-2.08,0c-42.45,0-84.11,20.41-84.11,41.21,0,10.7,11.72,14.49,21.75,14.49h.23a3,3,0,0,0,.69-5.9c-1.67-.44-3.44-1.53-3.51-2.17-.58-5,14.33-15.89,38.5-22.17-6.26,18.61-16.65,50.1-26.6,82.92-1.47.07-2.94.11-4.39.11a88.94,88.94,0,0,1-21.26-2.6,3,3,0,0,0-3.58,3.82,37.5,37.5,0,0,0,22.26,22.19c-14,48.41-21.21,81.27-21.38,97.7-.28,26.07,25,30.83,25.29,30.87a3,3,0,0,0,2.84-4.85c-4.32-5.29-7.4-28.09,20.17-121.08,23.12-1.86,46.21-13.17,65.23-32C372,667.3,383.11,647,383.67,632,384.16,618.83,380,607.21,371.71,598.43Zm-13.49,27.41c-6.09,19.34-28.17,45-58,57.09,7.77-24.5,15.21-46.49,20.26-61.41,4.18-12.35,6-17.87,6.35-19.42V602c2.16-.12,4.26-.18,6.27-.18,12.51,0,21.46,2.38,24.53,6.52C360.39,612.07,360.6,618.28,358.22,625.84Z"/><path class="cls-4" d="M451.82,681.93c2.68,14.14,12.72,26.13,21.2,28.9a14.45,14.45,0,0,0,4.49.7c15.33,0,33.43-22.87,44.27-42.45,10-18,18.3-40.91,11.83-51.24-4.13-6.59-15.06-14-23.52-14q-.65,0-1.28.06c-4.13.39-8.49,3-13,7.77a15.82,15.82,0,0,0-7.12-2,9.9,9.9,0,0,0-2.75.38c-10.83,3.14-23.67,28.35-29.43,44a157.75,157.75,0,0,1-14.69,13.31c2-5.88,6.41-16,9.59-23.35,7.24-16.68,9.3-21.9,9-24.35-.68-6.14-11.79-13.9-18.07-13.9a7.49,7.49,0,0,0-1.47.14c-5.16,1-15.23,13-23.77,24.35,1.91-5.55,2.69-8.43,2.69-9.83,0-7.45-11.16-11.94-15.28-13.35a3,3,0,0,0,1.42-2.38s.07-1.28.09-1.84c.11-3.39.51-9.3,1.75-18.61,20.29-1.14,44.23-9.28,64.61-22,22.1-13.84,35.57-30.09,37-44.58,1.89-19.76-12.39-34.93-39.4-42.23,10.7-8.34,24-21.74,23.86-36.83-.19-24-29.52-34.71-58.51-34.71-15.07,0-29.37,2.95-39.26,8.1-13.79,7.21-12.31,19.88-9.6,25.58a3,3,0,0,0,3.73,1.53,235.5,235.5,0,0,1,26-7.71c-5.24,15.19-10,29.67-14.2,43.15a110.83,110.83,0,0,1-16.07,1.67,3,3,0,0,0-2.82,3.77c.14.51,3.2,11.7,12,17.61-7,24.35-11.61,44.44-13.8,59.8-8.9-.86-15.56-4.21-19.81-10a2.93,2.93,0,0,0-3.12-1.13c8.47-10.94,13.19-21.88,12.91-30.48-.38-11.47-13.07-15.07-13.61-15.21a3,3,0,0,0-3.73,2.27c-5.76,27.23-35.34,52.73-46.33,52.73h0a3.39,3.39,0,0,1-2.25-.65c-2-1.77-2.13-9.23,3.84-24.46a12.92,12.92,0,0,0,4.91,1.82,17.84,17.84,0,0,0,2.58.19c8.73,0,18-6.34,25.53-17.38,7-10.37,12.35-25.39,8.32-35.55-3.16-8-14.06-14.15-21.32-14.15a9.65,9.65,0,0,0-3.27.52c-13.29,4.79-25.68,21.71-32.84,35.95a116.25,116.25,0,0,0-5.48,12.78,235.06,235.06,0,0,1-24,28.72c1.7-4.44,3.82-9.82,5.81-14.87,11.12-28.21,15-38.82,14.6-42.18-.88-7.49-14.4-16.85-19.11-16.85h-.22c-7.83.34-20,15.57-31.47,33,3.71-11.64,7.93-23.95,12.75-37.16l0-.12c1.44-4.55.17-7.66-1.15-9.47a9.81,9.81,0,0,0-.86-1l4-.24c5.2-.2,10-.31,14.28-.31,22.2,0,25.78,2.84,26.27,3.4s.44.88.41,1c-.26,1.43-2.86,3.53-4.63,4.49a3,3,0,0,0,.54,5.51,29,29,0,0,0,7.61,1.12c6.8,0,11.1-3.29,11.8-9,.26-2.12-.06-5.4-3-9-6.45-7.84-22.13-13.22-44.38-15.29,1.62-4.18,3.16-8.11,4.58-11.73,7.36-18.79,9.9-25.42,9.72-28.08-.62-9.25-15.86-14-18.91-14.86a3,3,0,0,0-3.58,1.73c-.1.23-9.57,22.79-20.89,52-3.12.06-6.32.16-9.57.3,2.21-5.66,3-7.86,3.21-9,2.15-10.76-17.06-17.27-19.26-18a3,3,0,0,0-3.68,1.7c0,.11-4.72,11.29-11.08,27.66-22.82,2.43-48.48,6.51-76.31,12.13a3,3,0,0,0-2.23,3.94c1.5,4.25,7,18.13,14.14,18.55l1,0c7.64,0,37.48-3.61,38.75-3.76a3,3,0,0,0,2.18-4.58l-1.54-2.43c3.58-.44,9-1.1,15.68-1.85-14.5,39.27-30.66,88.8-29.47,111.66C150.67,593.41,173,601,173.9,601.32a3,3,0,0,0,3.26-4.75c-4.06-5-6.53-19.4,4.81-59.85,7.72-27.52,19.4-58.36,27.79-79.75,3.43-.31,6.8-.59,10.08-.86-20.55,54.86-31.41,91.6-32.28,109.25-.74,14.91,20.48,26.16,21.38,26.63a3,3,0,0,0,4.37-2.37c.78-8.06,2.07-16.82,3.82-26,9.86-22.78,24.39-46.36,33.41-59.36-.76,2.14-1.57,4.38-2.35,6.54-7.66,21.21-12.93,36.71-11,43,3.34,10.76,11.56,18.51,17.14,19l.61,0h0c8.5,0,21.28-14.88,28.59-24.41,4.09,14,17.26,26.77,26.7,28.24a18.07,18.07,0,0,0,2.77.21c12.26,0,27.5-11.23,37.66-21.75,1.91-2,3.69-4,5.37-6a3,3,0,0,0,0,.37A39.85,39.85,0,0,0,380,580.27a39,39,0,0,0,.83,5.69c4.21,18.23,14.92,21.21,19.67,21.61a3,3,0,0,0-.61,1c-1.21,3.08-29.56,75.54-31.61,90.59-1.87,13.71,9.13,21.17,15.2,23.19a3,3,0,0,0,3.94-3.09c-.18-2.25,1.11-9.28,8.28-30,7.77-13.28,17.47-29.07,26.75-42.15-3,6.93-5.36,13.5-5.2,16.9.58,12.22,14,24.15,21.5,24.15C442.3,688.16,446.7,686.07,451.82,681.93Zm32-18.82a20.81,20.81,0,0,0,7.22,3.49,3,3,0,0,0,3.79-3.21c-.09-.8-.16-1.72-.15-2,.44-18,16.37-34.33,21.07-35.69.67,3.43-3.26,17.41-14.22,35.86-10.12,17-21.75,27.77-25.64,28.85C475.45,687.49,477.28,677.67,483.84,663.1ZM448.19,426.7c1.18,0,2.33-.06,3.44-.06,12.38,0,17.93,2.56,18.91,4.75a5.6,5.6,0,0,1-.33,4.26c-2.84,7.26-15.21,18.63-33.94,27.68C440,451.35,444,439.07,448.19,426.7Zm-22,71.18a124.62,124.62,0,0,0,16.62-6.22c2.85-.16,5.76-.24,8.66-.24,20.13,0,30.74,3.61,31.85,6.17.78,1.8.46,4.24-1,7.24-6.75,14.27-37.76,37.4-69.21,47.73C416.6,535.57,421,517.2,426.23,497.88Zm-91.57-10.23a59.16,59.16,0,0,1-11.33,19.15,24.92,24.92,0,0,1-5.3,4.5C324.55,499.26,331,491,334.66,487.65Z"/><path class="cls-4" d="M568.64,626.31c-1.94-13.3-19.4-15.2-20.14-15.28h-.3a3,3,0,0,0-3,2.87c-1.16,27.08-10.47,62.65-24.3,92.84-18.74,40.92-43.11,65.37-55.83,65.38h-.17c-13.7-.24-20.61-26.18-22.11-36.15a3,3,0,0,0-2.56-2.53l-.41,0a3,3,0,0,0-2.74,1.77c-4.12,9.19-3.26,26.6,5.3,39.82,4.72,7.28,13.51,16,28.6,16h.19c17.67-.09,34.73-9.53,50.68-28.08C554,725.53,573.38,658.8,568.64,626.31Z"/><path class="cls-4" d="M752.93,576.78c22.21-68.82,48.74-134.89,73-181.74a4.78,4.78,0,0,0,.21-3.87c-1.74-4.82-12.06-9.6-16.41-11.43a3,3,0,0,0-3.76,1.26,853.23,853.23,0,0,0-46.08,93.21q-.53-.8-1.08-1.52c-2.93-3.79-10.75-9.8-19.29-9.8a17.44,17.44,0,0,0-4.68.63c-12.89,3.59-28.5,24.53-38.85,43-7.14,9.38-17.93,22.71-25.79,31.93l2.51-5.54c10.8-23.73,19-42.39,18.17-48.64-1.45-11-14-17.13-19.09-17.31h-.23c-5.58,0-15.29,8.18-25,19.12a23.36,23.36,0,0,0,2-6c.89-9.75-11.49-14.58-18.94-15.9a3,3,0,0,0-3.28,1.77c-.07.17-7.26,16.88-15,35.53-12.47,18.46-26.59,36.17-33.4,42.26,2.87-8.11,11.29-25.27,16.73-36.36,9.56-19.49,12.14-25.11,12.06-27.5-.21-6.09-12.18-10.9-19.3-13.23a3,3,0,0,0-3.64,1.57s-.9,1.9-2.34,5l-.43-.58c-2.93-3.79-10.75-9.8-19.29-9.8a17.44,17.44,0,0,0-4.68.63c-13.81,3.85-29.06,26.72-35,36.38-9.41,15.37-18.31,34.82-17,43.6,1.6,10.39,11.76,22.94,18.76,23.16h.26c8.12,0,20.85-12.78,30.22-23.66a11.1,11.1,0,0,0,0,1.43c.22,3.3,3.86,11.47,9.2,17.56-.74-.32-1.37-.58-1.87-.78a3,3,0,0,0-3.73,1.34c-9.83,17.84-12.36,31.6-7.53,40.91,4.62,8.91,14.14,10,14.55,10.09l.33,0a3,3,0,0,0,2.65-4.4c-3.42-6.51,2.16-16.11,6.24-23.13,2.6-4.48,4.49-7.71,4.49-10.4,0-2.3-1.36-4.46-3.32-6.37.22,0,.43,0,.65,0,3.05,0,7.54-1.5,15.93-11.4,2.39,9.15,16.1,16.07,17.84,16.91A3,3,0,0,0,614,572.7a209.11,209.11,0,0,1,6.29-23.36,252.15,252.15,0,0,1,39.31-51.87c-1.63,3.75-3.66,8.2-5.47,12.17-8.58,18.83-14.65,32.59-14.65,38.13,0,7.19,12,24,20.63,24.29h.24c5.45,0,13.63-7.51,24.34-22.33,3.62,8.59,11.3,16.74,16.92,16.92h.26c8.51,0,22.14-14.08,32.08-25.91-3.91,11-7.69,22.17-11.3,33.31-8.92-.45-18.57-.68-28.72-.68-25.72,0-55.66,1.47-89,4.36a3,3,0,0,0-2.7,3.46c.35,2.23,3.75,21.8,14.62,21.8,1.48,0,6.05-.4,15.43-1.24,18.42-1.64,52-4.64,83.54-5.94-5.42,17.86-10.28,35.33-14.47,52-20.71,27.16-40.54,45.48-46.5,46-.68-5.59,9.12-32.53,22-54.37,6.21-10.52,9.73-13.77,11.18-14.77-.22,2.81-2.72,9.44-5.89,15.34a3,3,0,0,0,1.34,4.12,11.35,11.35,0,0,0,5,1.17c4.05,0,7.89-2.28,10.81-6.42,3.94-5.59,5.24-13.13,3.23-18.75-2.57-7.19-11.73-13.27-20-13.27a15.24,15.24,0,0,0-2.18.15c-14.5,2.1-31.62,25-41.1,46.6-16.9,27.08-36.17,41.69-45.74,41.69a5.32,5.32,0,0,1-3.63-1.15c-2-1.77-2.13-9.23,3.84-24.47a12.93,12.93,0,0,0,4.91,1.82,17.85,17.85,0,0,0,2.58.19c8.73,0,18-6.33,25.53-17.38,7-10.37,12.35-25.39,8.32-35.55-3.16-8-14.06-14.15-21.32-14.15a9.64,9.64,0,0,0-3.27.52c-13.29,4.79-25.68,21.71-32.84,35.95-7.85,15.6-12,32.74-10.42,42.64,2.52,15.4,17.28,30.55,27.6,32.14a21.41,21.41,0,0,0,3.25.25c12.7,0,26.77-10.72,36.89-22,3,7.65,9,18.08,19.48,19.21a11.61,11.61,0,0,0,1.22.06c10.51,0,25.77-14.63,37.12-27.46-3.38,17.3-5,30.16-4.52,36.79C690,748.35,710.8,752.46,711,752.5a3.07,3.07,0,0,0,.54,0,3,3,0,0,0,3-3.37C712.09,729.43,723,675.56,743,608.59a2.9,2.9,0,0,0,.11-.61A13.09,13.09,0,0,0,741,597a13.42,13.42,0,0,0-1.71-1.85c3.23,0,5.52,0,5.56,0,40.63.09,46,5.38,46.69,7a2.15,2.15,0,0,1-.06,2c-.93,1.86-4,3.71-7.53,4.6a3,3,0,0,0-1.78,4.56c.2.29,4.86,7.21,13.54,7.21h0a17.82,17.82,0,0,0,5.63-1,13.21,13.21,0,0,0,8.45-13.78C809,597.68,800.47,583.32,752.93,576.78ZM532.29,539.26a223.13,223.13,0,0,1,17.42-31.14c8.27-12.43,16.27-21.24,20-24.39a60.76,60.76,0,0,1-1,10.85C555.36,512.19,540.39,530.72,532.29,539.26Zm87,87.64A59.16,59.16,0,0,1,607.91,646a24.92,24.92,0,0,1-5.3,4.5C609.12,638.5,615.57,630.26,619.24,626.9ZM746.49,494.57c-13.35,17.61-28.33,36.15-36.42,44.69a223.08,223.08,0,0,1,17.41-31.14c8.27-12.43,16.27-21.24,20-24.39A60.76,60.76,0,0,1,746.49,494.57Z"/><path class="cls-4" d="M944.24,460c-3.76-10.11-20.5-21.54-56.17-24.17,4.36-10.11,6.23-14.61,6.56-16.23,2.15-10.76-17.06-17.27-19.26-18a3,3,0,0,0-3.68,1.68c-.06.13-5.6,13.18-13.27,32.29-3.6.17-7.26.41-10.91.7a3,3,0,0,0-.68.14,8.52,8.52,0,0,0,.54-2.74c0-7.15-13-12.85-17-14.43a3,3,0,0,0-3.73,1.34c-9.83,17.84-12.36,31.6-7.53,40.91,4.62,8.91,14.14,10,14.55,10.09l.33,0a3,3,0,0,0,2.65-4.4c-1.68-3.19-1.19-7.13.23-11.14a4.72,4.72,0,0,0,.48,1.73,4.54,4.54,0,0,0,4.2,2.39h.23c2-.07,4.47-.23,7.1-.43-7.44,19.2-14,37-19.55,53-11,14.48-25.77,29.88-33.19,36.1,3.27-8.65,11.86-26.09,18-38.5,10.77-21.86,15.17-31.09,15.32-34.36.41-9-16.09-12.8-19.4-13.46a3,3,0,0,0-3.25,1.55c-6.14,11.77-36.63,71.1-33.61,83.59,2.4,9.93,11.64,19.91,19,20.54.29,0,.59,0,.89,0,7,0,15.73-6.57,22.87-13.4-5.33,19.13-7.81,33-7.37,41.42.93,17.82,15.07,23.36,22.42,23.79h.18a3,3,0,0,0,2.32-4.9c-6.35-7.78-4.79-38.82,38.77-142.5,2.3-5.54,1.09-9.41-.33-11.68a12.25,12.25,0,0,0-2.6-2.93l7.6-.55c11.28-.82,20.33-1.22,27.65-1.22,22.55,0,23.68,3.9,23.69,3.94.82,3.68-7.63,7-11.61,7.92a3,3,0,0,0-.58,5.64,36.55,36.55,0,0,0,13.69,3.09h0c4.93,0,9-1.45,11.95-4.32C945.06,469.39,946,464.69,944.24,460Z"/><path class="cls-2" d="M820,461c4.38,8.44,13.39,9.52,13.77,9.56H834a2,2,0,0,0,1.77-2.93c-3.68-7,2.07-16.88,6.26-24.1,2.53-4.34,4.35-7.48,4.35-9.9,0-6.68-13.63-12.42-16.37-13.5a2,2,0,0,0-2.49.89C817.86,438.61,815.33,452.06,820,461Z"/><path class="cls-2" d="M577.68,575.64c0-6.68-13.63-12.42-16.37-13.5a2,2,0,0,0-2.49.89c-9.65,17.53-12.18,31-7.51,40,4.38,8.44,13.39,9.52,13.77,9.56h.22a2,2,0,0,0,1.77-2.93c-3.68-7,2.07-16.88,6.26-24.09C575.86,581.2,577.68,578.06,577.68,575.64Z"/><path class="cls-2" d="M371,599.12c-10.14-10.7-25.94-16.52-45.71-16.84l-2.07,0c-41.17,0-83.11,20.29-83.11,40.21,0,10,11.18,13.49,20.75,13.49h.21a2,2,0,0,0,.45-3.94c-1.26-.32-4.08-1.52-4.25-3-.73-6.35,16.8-17.72,41-23.7-6.22,18.46-17.05,51.21-27.38,85.3-1.72.1-3.44.15-5.15.15a90,90,0,0,1-21.5-2.63,2,2,0,0,0-.48-.06,2,2,0,0,0-1.91,2.6,36.44,36.44,0,0,0,22.53,21.87c-14.16,48.82-21.43,81.89-21.6,98.33-.27,25.23,24.22,29.83,24.47,29.87a2,2,0,0,0,1.9-3.23c-5.44-6.67-6.33-33.38,20.18-122.66,53.23-3.81,92.31-55.73,93.32-82.84C383.15,619.07,379.11,607.69,371,599.12Zm-11.81,27c-6.29,20-29.43,46.67-60.54,58.48,8-25.31,15.71-48.09,20.9-63.42,4.17-12.31,6-17.81,6.32-19.29a7.55,7.55,0,0,0,.12-.83c2.47-.15,4.87-.23,7.14-.23,13,0,22,2.46,25.33,6.93C361.39,611.74,361.65,618.26,359.17,626.14Z"/><path class="cls-2" d="M452.52,680c2.25,15.78,13.39,27.41,20.81,29.83a13.46,13.46,0,0,0,4.18.65c14.89,0,32.68-22.59,43.39-41.94,9.37-16.93,18.11-40.25,11.86-50.23-4-6.37-14.53-13.49-22.67-13.49q-.6,0-1.18.05c-4,.38-8.36,3.07-12.87,8a15.47,15.47,0,0,0-7.33-2.2,8.9,8.9,0,0,0-2.48.34c-10.53,3-23.19,28.14-28.84,43.54C449,663.11,442.88,668.1,440,669.92c1.27-5,6.71-17.56,10.49-26.27,6.56-15.12,9.21-21.52,8.95-23.84-.62-5.62-11.28-13-17.08-13a6.48,6.48,0,0,0-1.27.12c-5.68,1.13-18.3,17.2-27.16,29.38,3.39-9.39,4.88-14.1,4.88-15.84,0-7.68-14-12.23-15.6-12.73a2,2,0,0,0-.59-.09,2,2,0,0,0-1.86,1.27c-1.2,3.07-29.51,75.42-31.55,90.36-1.78,13.06,8.73,20.17,14.53,22.11a2,2,0,0,0,2.63-2.06c-.28-3.41,2.54-13.66,8.37-30.46,9.45-16.14,21.75-36,32.73-50.27-4.59,9.46-9.49,20.75-9.27,25.4.55,11.51,13.55,23.2,20.5,23.2C442.38,687.16,447,684.77,452.52,680Zm31-18.55a19.06,19.06,0,0,0,7.85,4.13,2,2,0,0,0,2.52-2.14c-.07-.63-.17-1.74-.16-2.1.46-19,17.75-36.76,22.61-36.76h.08a1,1,0,0,1,.21.42c1.29,4.15-3.77,19.49-14.2,37s-23.26,29.43-27.07,29.43h-.1s0,0,0,0C473.91,689.76,475.68,678.44,483.47,661.49Z"/><path class="cls-2" d="M567.65,626.46c-1.83-12.54-18.54-14.36-19.25-14.43h-.2a2,2,0,0,0-2,1.91c-1.16,27.2-10.51,62.92-24.39,93.21-16.94,37-41.86,66-56.74,66h-.19c-17.36-.31-23-36.64-23.09-37a2,2,0,0,0-1.71-1.68l-.27,0a2,2,0,0,0-1.82,1.18c-4,8.95-3.15,25.93,5.23,38.87,4.58,7.07,13.12,15.5,27.76,15.5h.19c17.37-.09,34.17-9.41,49.92-27.73C553,725.08,572.36,658.74,567.65,626.46Z"/><path class="cls-2" d="M360.65,547.94a2,2,0,0,0-3.6,1.39,38.8,38.8,0,0,0,23.86,30.25,39.21,39.21,0,0,0,.85,6.15c4.47,19.39,16.41,20.89,20,20.89a10.21,10.21,0,0,0,1.59-.11,2,2,0,0,0,1.67-1.86s.07-1.27.09-1.82c.12-3.51.54-9.7,1.87-19.53,20.3-1,44.44-9.08,65-21.94,21.83-13.67,35.13-29.65,36.49-43.83,2.5-26.15-22.63-37.17-40.64-41.68,10.76-8.08,25.22-21.83,25.1-37.27-.18-23.29-29-33.72-57.51-33.72-14.91,0-29.05,2.91-38.79,8-16.39,8.57-9.23,24.11-9.16,24.26a2,2,0,0,0,2.48,1A235.59,235.59,0,0,1,417.7,430c-5.54,16-10.57,31.27-15,45.4a112.21,112.21,0,0,1-16.81,1.79,2,2,0,0,0-1.88,2.51c.13.5,3.24,11.86,12.18,17.43-7.22,25.13-12,45.73-14.11,61.31C372.45,557.7,365.23,554.18,360.65,547.94Zm86.82-122.21c1.43-.06,2.83-.09,4.16-.09,10.91,0,18.32,2,19.82,5.34.59,1.31.48,3-.31,5-3,7.7-16.37,19.87-36.49,29.18C438.59,452.32,442.89,439.07,447.47,425.73Zm-22.05,71.35a123.16,123.16,0,0,0,17.19-6.4c2.93-.17,5.92-.25,8.9-.25,19.59,0,31.31,3.41,32.77,6.78.9,2.08.57,4.79-1,8.07-7.7,16.29-41.76,39.38-71.42,48.77C415.37,536.39,419.91,517.25,425.42,497.07Z"/><path class="cls-2" d="M751.61,577.61c22.3-69.28,49-135.88,73.41-183a3.74,3.74,0,0,0,.15-3.06c-1.66-4.57-12.55-9.46-15.85-10.85a2,2,0,0,0-2.51.84c-16.23,28-32,59.9-46.79,94.9a24.76,24.76,0,0,0-2-3.1c-2.37-3.07-10-9.41-18.5-9.41a16.45,16.45,0,0,0-4.41.59c-12.62,3.52-28.49,25.11-38.28,42.59-8.7,11.44-22.54,28.39-30.29,37.12,1.49-3.4,3.39-7.58,5.26-11.69,10.73-23.59,18.88-42.11,18.09-48.1-1.38-10.47-13.34-16.27-18.13-16.44h-.19c-5.57,0-17.11,9.91-28.69,24,3.11-6.85,4.54-10.22,4.7-11.89,1-11.31-17.34-14.69-18.12-14.82a2,2,0,0,0-2.19,1.18c-.07.17-7.28,16.93-15,35.61-14.18,21-30.68,41.2-36.15,44.49,1.33-6.16,11.43-26.76,17.69-39.51,8.74-17.81,12-24.75,12-27-.2-5.68-13.08-10.5-18.62-12.31a2,2,0,0,0-2.43,1s-1.21,2.56-3.08,6.63a23.07,23.07,0,0,0-1.38-2c-2.37-3.07-10-9.41-18.5-9.41a16.43,16.43,0,0,0-4.41.59c-21.29,5.93-53.52,63.83-51.21,78.87,1.62,10.55,11.83,22.13,17.8,22.31h.23c8.44,0,22.78-15.34,31.74-26a18.22,18.22,0,0,0-.52,4.71c.31,4.63,9.38,22.88,20.06,23.91l.61,0c2.78,0,7.4-1.49,16.58-12.75.35,9.7,15.8,17.48,17.62,18.37A2,2,0,0,0,613,572.5a210.31,210.31,0,0,1,6.35-23.57c14.35-25.81,34.65-48,43-55.45-1.67,4.16-4.62,10.63-7.33,16.58-8.52,18.72-14.56,32.38-14.56,37.72,0,6.72,11.64,23,19.67,23.29h.2c6.41,0,16.48-12,24.6-23.41,3.21,9.16,11.54,17.83,16.7,18h.23c8.1,0,22.22-14.06,34.92-29.88-4.67,13-9.17,26.15-13.42,39.31-9.12-.48-19-.72-29.43-.72-25.7,0-55.61,1.46-88.9,4.35a2,2,0,0,0-1.8,2.3c.34,2.14,3.6,21,13.64,21,1.5,0,6.71-.46,15.34-1.23,18.7-1.67,53.06-4.73,85-6-5.6,18.39-10.62,36.37-14.92,53.49-19.57,25.68-40.91,46.53-47.65,46.53a1.15,1.15,0,0,1-.59-.12c-.54-1.1-.17-6.62,5-20.17a253.63,253.63,0,0,1,15.59-33.19c8.12-14.28,12.77-18.09,14.26-18.12,1.05,1.41-1.72,9.64-5.83,17.27a2,2,0,0,0,.89,2.75,10.34,10.34,0,0,0,4.52,1.08c3.72,0,7.27-2.13,10-6,3.76-5.34,5-12.51,3.11-17.83-2.4-6.71-11.31-12.6-19.06-12.6a14.25,14.25,0,0,0-2,.14c-14.15,2.05-31,24.71-40.36,46.08-17.29,27.72-36.53,42.22-46.62,42.22a6.35,6.35,0,0,1-4.28-1.39c-3.15-2.72-1.64-12.63,4-26.74a12.34,12.34,0,0,0,5.53,2.35,16.79,16.79,0,0,0,2.43.18c8.39,0,17.39-6.18,24.71-16.94,6.9-10.16,12.11-24.8,8.22-34.62-3-7.61-13.44-13.52-20.39-13.52a8.67,8.67,0,0,0-2.93.46c-10.72,3.87-23.39,17.78-32.29,35.46-7.64,15.19-11.89,32.47-10.33,42,2.41,14.76,17,29.8,26.76,31.31a20.42,20.42,0,0,0,3.1.23c12.84,0,27.22-11.36,37.25-22.88,2.57,7,8.51,19,19.23,20.12a10.39,10.39,0,0,0,1.11.06c10.92,0,27.44-16.69,38.84-29.94-3.81,18.88-5.7,33.3-5.23,40.2,1.7,24.88,21.71,28.83,21.91,28.87a2,2,0,0,0,.36,0,2,2,0,0,0,2-2.24c-2.45-19.88,8.49-73.91,28.54-141a2,2,0,0,0,.08-.46,12,12,0,0,0-1.91-10.25,14,14,0,0,0-3.92-3.45h2.88c3.31,0,5.67,0,5.69,0,40.12.08,46.66,5.35,47.61,7.61a3.14,3.14,0,0,1-.09,2.8c-1.07,2.14-4.28,4.15-8.19,5.13a2,2,0,0,0-1.18,3c.18.28,4.56,6.77,12.7,6.77h0a16.83,16.83,0,0,0,5.32-.9,12.2,12.2,0,0,0,7.77-12.73C808,598,799.51,584,751.61,577.61ZM569.66,495c-15.63,20.63-33.32,42.3-40.07,48.34,2.09-6.15,9.32-20.78,19.28-35.76,9.29-14,18.57-23.78,21.67-25.7C571,483.91,570.63,489.49,569.66,495ZM620.94,624.4c-.47,3.3-4.61,13.15-10.82,20.65-2.49,3-6,6.47-9.77,7.65C608.86,636.24,617.75,625.82,620.94,624.4ZM747.43,495c-15.63,20.63-33.32,42.31-40.07,48.34,2.09-6.15,9.31-20.78,19.28-35.76,9.3-14,18.57-23.78,21.67-25.69C748.77,483.91,748.41,489.49,747.43,495Z"/><path class="cls-2" d="M943.3,460.34c-3.7-9.95-20.55-21.23-56.71-23.62,4.63-10.73,6.74-15.74,7.05-17.33,2-9.91-16.47-16.15-18.58-16.83a2,2,0,0,0-2.45,1.12c-.06.14-5.71,13.45-13.5,32.87-3.8.17-7.66.42-11.52.73a2,2,0,0,0-1.48.85c-3.82,5.49-9.93,15.28-7.88,19.21a3.5,3.5,0,0,0,3.31,1.85h.2c2.37-.08,5.45-.3,8.65-.55-7.7,19.81-14.48,38.16-20.16,54.58-12.51,16.5-29.93,34.17-36.08,38.44,2-7,12.1-27.58,19.08-41.75,9.62-19.53,15.07-30.73,15.21-34,.37-8.22-15.43-11.8-18.6-12.44a2,2,0,0,0-.39,0,2,2,0,0,0-1.77,1.07c-3.75,7.18-36.52,70.49-33.53,82.89,2.27,9.4,11.25,19.19,18.14,19.77.26,0,.53,0,.81,0,6.05,0,14.91-5.66,24.87-15.77-6,20.91-8.83,35.93-8.37,44.73,1.11,21.39,21.28,22.83,21.48,22.85h.12a2,2,0,0,0,1.55-3.26c-3.73-4.57-5.69-18.19,6.19-57.12,6.88-22.55,17.49-50.81,32.44-86.4,1.72-4.13,1.63-7.75-.25-10.77a12.67,12.67,0,0,0-4.71-4.24l10.49-.77c11.31-.82,20.38-1.22,27.72-1.22,21.91,0,24.42,3.61,24.66,4.72,1.07,4.81-8.82,8.27-12.36,9.11a2,2,0,0,0-.39,3.76,35.45,35.45,0,0,0,13.27,3h0c4.66,0,8.45-1.36,11.26-4C944.07,468.95,944.9,464.66,943.3,460.34Z"/><path class="cls-2" d="M254.43,571.74l.53,0h0c6.21,0,17.14-9.71,29-25.64,3.24,14.13,17,28,26.4,29.49a17.05,17.05,0,0,0,2.61.2c11.95,0,26.92-11.08,36.95-21.44,13.06-13.5,20.64-27.93,20.29-38.59s-12.37-14.14-12.88-14.28a2,2,0,0,0-2.48,1.52c-2.55,12.06-10.31,25.53-21.28,37-9.51,9.91-20,16.57-26,16.57h0a4.33,4.33,0,0,1-2.91-.89c-3.15-2.72-1.64-12.63,4-26.74a12.34,12.34,0,0,0,5.53,2.35,16.87,16.87,0,0,0,2.43.18c8.39,0,17.39-6.18,24.71-16.94,6.9-10.16,12.11-24.8,8.22-34.62-3-7.61-13.44-13.52-20.39-13.52a8.65,8.65,0,0,0-2.93.46c-10.72,3.86-23.39,17.78-32.29,35.46A115.34,115.34,0,0,0,288.49,515,236,236,0,0,1,261,547.25c1.81-4.94,4.73-12.35,7.43-19.18,9-22.95,14.94-38.25,14.53-41.7-.81-6.91-13.77-16-18.12-16h-.17c-8.57.37-23.33,20.79-34.69,38.77,4.22-13.74,9.18-28.38,15-44.38,1.06-3.33.72-6.22-1-8.57a10.07,10.07,0,0,0-2.66-2.46l6.59-.39c5.21-.21,10-.31,14.32-.31,21.46,0,26.05,2.62,27,3.75a2.09,2.09,0,0,1,.64,1.88c-.36,2-3.35,4.22-5.14,5.19a2,2,0,0,0,.36,3.67,27.82,27.82,0,0,0,7.32,1.08c6.33,0,10.16-2.9,10.8-8.15a10.91,10.91,0,0,0-2.81-8.25c-6.41-7.79-22.34-13.1-45-15,1.8-4.65,3.5-9,5.06-13,7-17.84,9.82-25.17,9.65-27.65-.58-8.76-16.38-13.45-18.18-14a2,2,0,0,0-2.39,1.15c-.1.23-9.7,23.1-21.12,52.62-3.81.06-7.75.19-11.76.38a98.34,98.34,0,0,0,3.73-10.27c2-9.91-16.48-16.15-18.59-16.83a2,2,0,0,0-2.46,1.13c0,.12-4.83,11.54-11.29,28.2-22.94,2.42-48.78,6.52-76.82,12.18a2,2,0,0,0-1.49,2.63c1,2.92,6.53,17.49,13.26,17.89l.93,0c7.58,0,37.36-3.6,38.63-3.75a2,2,0,0,0,1.45-3.05l-2.38-3.77c3.69-.46,10.41-1.28,18.86-2.23-14.61,39.41-31.17,89.79-30,112.78,1.09,21,22.75,28.36,23.68,28.66a2,2,0,0,0,2.18-3.16c-10.17-12.45.83-60,32.67-141.17,4.19-.38,8.3-.73,12.27-1-14.61,38.93-31.69,88.54-32.77,110.42-.71,14.28,20,25.24,20.84,25.7a2,2,0,0,0,2.92-1.58c.79-8.12,2.08-16.95,3.86-26.24,11.28-26.09,29.26-54,37.49-65.07-1.2,3.66-2.92,8.43-4.53,12.88-7.35,20.35-12.82,36.38-11,42.33C241.34,563.66,249.28,571.29,254.43,571.74Zm81.93-86.58c-.47,3.3-4.61,13.15-10.82,20.65-2.49,3-6,6.47-9.77,7.64C324.29,497,333.18,486.58,336.36,485.15Z"/><path class="cls-6" d="M834,468.62c-6.29-12,10.38-29.26,10.38-34.93S829.27,422,829.27,422C805.35,465.47,834,468.62,834,468.62Z"/><path class="cls-6" d="M560.58,564c-23.91,43.42,4.72,46.57,4.72,46.57-6.29-12,10.38-29.26,10.38-34.93S560.58,564,560.58,564Z"/><path class="cls-6" d="M325.24,584.28c-41.57-.68-83.14,19.56-83.14,38.19C242.1,634.32,261,634,261,634s-5.36-1.36-5.74-4.73c-1-8.76,20.64-21.11,46.05-26.69-6.5,19.21-18,53.81-28.91,90a91.3,91.3,0,0,1-28.64-2.44,34.74,34.74,0,0,0,23.09,21.14C255,752,245,791.78,244.8,810.89c-.25,23.83,22.81,27.88,22.81,27.88-10.2-12.5,3.68-70.35,20.21-125.83,51.65-2.86,91.81-53.56,92.84-81C381.71,604.28,361.41,584.86,325.24,584.28ZM295.52,687.85c14.05-44.76,27.67-82.79,28.37-86.34a5.44,5.44,0,0,0,0-2.3c17-1.29,31.27.73,36.2,7.37C372.47,623.31,342.5,672.17,295.52,687.85Z"/><path class="cls-6" d="M454.28,675.75a18.88,18.88,0,0,0,.07,2.82c1.69,15.21,12.28,27,19.6,29.4,24.08,7.86,68.44-70.47,57.12-88.55-4-6.41-14.89-13.17-22-12.51-4.25.4-8.64,3.89-12.65,8.59-2.73-1.73-6.46-3.43-9.66-2.5-8.58,2.48-20.92,24.1-27.67,42.72-10,10.1-19.83,18.37-21.17,16.76-2.54-3,20-47.91,19.52-52.47s-11.24-12.1-16-11.15c-5.21,1-20.67,20.39-34.69,41,5.59-15,10-27.13,10-29.47,0-6.42-14.2-10.82-14.2-10.82s-29.4,75-31.43,89.9,13.18,19.94,13.18,19.94c-.35-4.35,3.47-16.89,8.6-31.65v.06c12.5-21.35,30.63-50.34,43.77-63,0,0-16.93,31.18-16.56,39,.51,10.65,12.65,21.29,18.5,21.29C442.65,685.16,448.15,681.62,454.28,675.75ZM483,657.91a15.53,15.53,0,0,0,8.91,5.79s-.19-1.71-.17-2.37c.51-20.79,20.53-40.81,25.52-38.53s-2.33,22.2-13.1,40.3-26,33.12-30.16,30C470.92,690.84,474.36,675.75,483,657.91Z"/><path class="cls-6" d="M548.2,614c-1.25,29.07-11.3,65-24.57,94-17.66,38.55-43.11,67.4-58.78,67.12-19.27-.34-25-38.71-25-38.71-6.77,15.11,1.93,51.7,31.34,51.55,59.39-.29,101.12-115.87,94.51-161.2C564,615.61,548.2,614,548.2,614Z"/><path class="cls-6" d="M359,549.13s2.22,21,23.8,29.07a39.5,39.5,0,0,0,.87,7.1c5,21.65,19.26,19.26,19.26,19.26s.07-1.23.08-1.77a214.48,214.48,0,0,1,2.12-21.4c42.87-1.17,98.47-35.35,101.22-64,2.46-25.73-24.17-36.49-43.39-40.53,15.89-11,27.95-25,27.84-38.22-.26-33.11-64.81-38.85-93.37-24-14.87,7.77-8.28,21.63-8.28,21.63a236.79,236.79,0,0,1,31.56-9c-5.77,16.57-11.39,33.48-16.46,49.86a114.54,114.54,0,0,1-18.31,2s3.23,12.16,12.61,17c-7.11,24.61-12.52,47.14-14.73,64.37C373.43,560.13,364.62,556.73,359,549.13Zm87-125.33c14.69-.78,25,1.38,27.26,6.37,4,9-14.69,27.12-41.81,38.64Q437.83,447.71,446,423.79Zm-22.23,71.66a120.87,120.87,0,0,0,18.33-6.75c19.1-1.14,41.18,1.19,44,7.7,6.6,15.23-37.55,49.26-76.83,60.5C412.52,540.1,417.19,519.52,423.79,495.45Z"/><path class="cls-6" d="M749,579.29c20.51-64,47.16-133.25,74.28-185.63,2.11-4.08-14.7-11.15-14.7-11.15-18,31.11-34.24,64.93-48.42,98.81a28.1,28.1,0,0,0-3.71-6.8c-2.52-3.26-11.67-10.65-20.79-8.11-11.35,3.16-26.52,22.77-37.14,41.76-10.81,14.23-35.05,43.82-36.71,43.41-2-.51,27.38-57.29,26.11-66.92s-12.68-14.58-16.22-14.7c-5.93-.21-23,15.5-38.22,37.82,6.54-14.71,11.88-25.44,12.11-27.94.87-9.61-16.48-12.67-16.48-12.67S621.84,484,614,502.94c-12.73,18.88-35.35,48.4-39.67,45.85s29.57-63.88,29.4-68.78-17.24-10.48-17.24-10.48-1.92,4.06-4.77,10.31a26.23,26.23,0,0,0-3.09-5.32c-2.52-3.26-11.67-10.65-20.79-8.11-20,5.58-52,62.36-49.77,76.64,1.52,9.89,11.14,20.47,15.88,20.62,7.13.22,22-14.24,36.6-33-2.11,6.19-3.39,11.11-3.22,13.59.29,4.33,9.15,21.18,18.25,22.05,5.09.49,13.1-8.3,21.25-19.63a44.82,44.82,0,0,0-2.24,8c-.76,9.13,16.48,17.49,16.48,17.49a212.34,212.34,0,0,1,6.47-24c18-32.37,45.62-59.89,48-59.16s-23.07,49.18-23.07,58.81c0,5.58,10.9,21,17.74,21.29,5.3.2,15.78-11.83,25.59-26.13,0,0,0,.07,0,.11,1.52,9.89,11.14,20.47,15.89,20.62,7.92.25,25.47-17.66,41.46-39.48-6.74,18.11-12.87,35.92-18.36,53-29.13-1.62-68-.93-119.59,3.55,0,0,3,19.26,11.66,19.26,4.79,0,56.61-5.64,103.06-7.34-6.26,20.38-11.55,39.46-15.81,56.48-19.79,26-45.42,52.05-51.42,47-6.47-5.43,27.72-79.78,37.18-74.69,4.39,2.37-5.07,19.94-5.07,19.94,9.8,4.73,18.25-10.81,14.87-20.28-2.34-6.56-11.83-12.18-18.93-11.15-13.25,1.92-29.73,24.1-38.87,45-20.67,33.19-45.18,49-54,41.41-4.72-4.08-1.57-17.09,4.55-31.6a11.73,11.73,0,0,0,6.61,3.72c19,2.79,39.54-32.7,33.21-48.67-3.16-8-15.69-13.75-20.79-11.91-11.09,4-23.18,18.57-31.18,34.47-7.73,15.36-11.59,32-10.14,40.81,2.28,13.94,16,28.26,25.09,29.66,12.57,1.94,28.8-9.87,40.81-24.7,2.36,8,8.24,21,18.67,22.16,10,1.07,27.83-16.26,43.33-35.31-5,23.15-7.34,40-6.83,47.48,1.61,23.61,20.28,27,20.28,27-2.58-21,9.16-76.72,28.61-141.81l0,0c3.5-14.5-16.87-15.25-16.87-15.25,7.75-.5,21.65-.32,21.65-.32,26.17.06,46.68,2.26,49.45,8.83,2.08,4.95-3.55,9.13-9.63,10.65,0,0,5.58,8.45,15.72,5.07C809.87,613.58,819.19,588,749,579.29ZM571.54,495.81s-41.06,54.24-44.36,50.95c-1.8-1.8,8.15-22.46,20-40.3,9.85-14.8,21.55-27.56,24.08-26.87C574.38,480.43,571.54,495.81,571.54,495.81Zm51.12,126.82c2.62,2.43-11.75,33.75-25.75,32.43C606.17,636.19,619.15,619.39,622.66,622.64ZM705,546.76c-1.8-1.8,8.15-22.46,20-40.3,9.85-14.8,21.55-27.56,24.08-26.87,3.09.84.25,16.22.25,16.22S708.25,550.06,705,546.76Z"/><path class="cls-6" d="M883.63,438.55c4.65-10.76,7.74-18,8.06-19.55,1.69-8.45-17.24-14.53-17.24-14.53s-5.84,13.75-14,34c-4.07.17-8.3.42-12.73.78,0,0-12.64,18.15-6.08,17.91,2.9-.1,7-.41,11.74-.8-6.9,17.67-14.54,38-21.4,57.78-14,18.49-37.06,42-39.87,40.34-4.25-2.48,34-71.74,34.3-78.67s-17-10.38-17-10.38-36.26,69.47-33.35,81.5c2.2,9.13,10.71,17.77,16.36,18.25,6.39.54,17.46-7.24,29.85-21.37-6.79,22.3-11.27,41.55-10.72,52.26,1,19.85,19.6,21,19.6,21-13.28-16.26,16-92.47,38.33-145.55h0c5.86-14.12-14.35-15.34-14.35-15.34,4.15-.42,21.58-1.66,21.58-1.66,25-1.81,52.78-2.63,54.49,5.06s-13.86,11.49-13.86,11.49,14.53,6.76,22.31-.68C947.92,462.5,936.67,441.29,883.63,438.55Z"/><path class="cls-6" d="M254.61,569.74c5.37.47,17.37-10.05,30.74-28.87a24.27,24.27,0,0,0,.27,3.1c2.28,13.94,16,28.24,25.09,29.66,19.52,3,58.3-35,57.54-57.79-.31-9.39-11.41-12.42-11.41-12.42-6.59,31.18-43.84,62.06-53.48,53.74-4.73-4.08-1.57-17.09,4.55-31.6a11.73,11.73,0,0,0,6.6,3.72c19,2.79,39.54-32.7,33.21-48.67-3.16-8-15.69-13.75-20.79-11.91-11.09,4-23.18,18.57-31.18,34.47a113.4,113.4,0,0,0-5.47,12.8c-12.16,17.79-31.61,37.15-33,36.88-1.69-.34,24.33-60.5,23.66-66.24s-12.85-14.34-16.22-14.19c-7,.31-22.26,19-41,50.82,5.83-20.64,12.73-40.93,19.34-59h0c3.83-12.06-15.41-11.61-15.41-11.61,6-.38,20.17-1.2,20.17-1.2,21.43-.84,39.25-.13,42.94,4.13,4.39,5.07-5.07,10.14-5.07,10.14s14.35,4.41,15.55-5.41c.94-7.75-11.33-18.56-48.68-21.27,9-23.27,15.74-39.47,15.55-42.27-.51-7.6-16.73-12.17-16.73-12.17s-9.83,23.38-21.58,53.83q-7.59.09-16.13.56c2.72-6.88,4.5-11.48,4.76-12.81,1.69-8.45-17.24-14.53-17.24-14.53s-5,11.83-11.71,29.29c-21.9,2.27-47.66,6.18-77.85,12.28,0,0,5.74,16.22,11.49,16.56S162.34,466,162.34,466l-4.06-6.42s10.34-1.36,25.24-3c-14.41,38.6-32.2,91.58-31,115,1,19.85,22.31,26.87,22.31,26.87C159.75,580,190.32,498.25,207.65,454.15c5.44-.5,11-1,16.66-1.39-15.73,41.69-32.68,91-33.75,112.75-.65,13.16,19.77,23.83,19.77,23.83.83-8.6,2.18-17.54,3.92-26.64,14.8-34.33,41-71.83,42.72-71,2.75,1.26-19.94,51.37-16.9,61.17S250.56,569.39,254.61,569.74Zm83.48-86.35c2.62,2.43-11.75,33.75-25.75,32.43C321.59,496.94,334.58,480.14,338.09,483.39Z"/></svg>